<?xml version="1.0" encoding="UTF-8"?>
<!-- Generated by Pixelmator Pro 3.2.3 -->
<svg width="276" height="279" viewBox="0 0 276 279" xmlns="http://www.w3.org/2000/svg" xmlns:xlink="http://www.w3.org/1999/xlink">
    <path id="Shape-copy" fill="#335060" fill-rule="evenodd" stroke="#335060" stroke-width="3.428686" stroke-linecap="round" stroke-linejoin="round" d="M 139.446472 189.977997 C 208.614258 160.840439 216.636749 157.565216 217.579437 157.579529 C 218.229385 157.589401 219.192932 157.84375 219.720657 158.14476 C 220.35025 158.503876 220.945618 159.230865 221.452332 160.259216 C 221.87706 161.121155 225.135193 169.59848 228.692657 179.097748 C 232.250092 188.596985 235.218811 196.818726 235.28978 197.368271 C 235.378082 198.051941 235.210358 198.773071 234.758621 199.652084 C 234.191162 200.756302 233.797699 201.083466 231.95723 201.981384 C 230.779556 202.555939 224.227417 205.367722 217.396927 208.229782 C 210.566437 211.091858 204.021866 213.868469 202.853439 214.400055 C 201.02095 215.23378 200.785583 215.421356 201.140457 215.765228 C 201.366745 215.984482 208.03978 218.88623 215.969452 222.213547 C 223.899109 225.540863 231.222076 228.666458 232.242722 229.159302 C 233.848862 229.934875 234.191376 230.242889 234.789413 231.449402 C 235.398575 232.678345 235.446259 232.999466 235.192245 234.161438 C 235.033768 234.886353 231.842819 243.619614 228.101242 253.568695 C 221.301575 271.649353 221.297791 271.658325 220.132751 272.502533 C 219.082703 273.263428 218.797333 273.335327 217.254181 273.227783 C 215.781891 273.125183 212.501114 271.821625 193.90567 263.950684 C 182.006119 258.913971 169.900192 253.813232 167.003616 252.615723 C 164.107056 251.418243 156.948807 248.42424 151.09642 245.962402 C 144.313034 243.108932 140.093491 241.484192 139.456482 241.480408 C 138.801041 241.476517 134.751587 243.0271 127.686707 245.987213 C 121.762909 248.469208 104.804443 255.595505 90.001221 261.823425 C 66.154999 271.855865 62.886932 273.158539 61.337883 273.24881 C 59.642601 273.347626 59.555035 273.317505 58.455448 272.257416 C 57.645714 271.476746 57.075653 270.510956 56.462082 268.88028 C 55.989456 267.624176 52.921291 259.466675 49.643944 250.752487 C 45.511806 239.765503 43.654816 234.470947 43.58625 233.481125 C 43.508015 232.3517 43.626728 231.845154 44.154926 231.054565 C 44.548786 230.465057 45.464634 229.728149 46.388733 229.257233 C 47.250168 228.818253 54.63559 225.655914 62.800781 222.229813 C 72.012192 218.364716 77.678474 215.839859 77.730614 215.577148 C 77.792412 215.265808 73.636566 213.400528 62.028324 208.529419 C 53.345852 204.886047 45.920822 201.675415 45.528267 201.394669 C 45.135708 201.113922 44.515915 200.446426 44.150951 199.911316 C 43.620983 199.134277 43.509113 198.651001 43.595337 197.511017 C 43.669323 196.532837 45.849674 190.378754 50.523628 177.955826 C 56.138962 163.030807 57.501194 159.66864 58.233891 158.925812 C 58.723351 158.429596 59.65591 157.88031 60.306244 157.705215 C 61.295795 157.438782 61.73539 157.474518 63.001213 157.924393 C 63.833111 158.220062 78.610931 164.396271 95.840797 171.649307 C 113.070671 178.902359 129.930527 185.993469 133.307159 187.407333 L 139.446472 189.977997 Z M 90.284599 220.429153 C 62.599785 232.09314 54.397305 235.644379 54.195698 235.845963 C 53.897278 236.144318 53.989647 236.648499 54.692535 238.557983 C 55.167404 239.848038 55.96553 241.931244 56.466145 243.187347 C 57.327023 245.347382 57.422771 245.469879 58.232841 245.447433 C 58.703911 245.434387 65.290337 242.756226 72.869347 239.495972 C 80.448349 236.235718 87.12896 233.508499 87.715141 233.435486 C 88.469208 233.341583 89.154778 233.495819 90.059128 233.962891 C 90.762138 234.325958 91.571732 235.031647 91.858223 235.531082 C 92.144714 236.030502 92.452187 236.889374 92.541489 237.439667 C 92.65728 238.153152 92.517143 238.825867 92.05304 239.784531 C 91.442131 241.046417 91.225502 241.211243 88.521339 242.47168 C 86.936859 243.21022 82.39769 245.185577 78.434288 246.861359 C 74.470886 248.53714 69.018829 250.846283 66.318604 251.992798 C 63.618382 253.139313 61.282246 254.278458 61.127193 254.524246 C 60.923367 254.847366 61.106247 255.671768 61.787502 257.500824 C 62.305725 258.892151 62.99147 260.652557 63.311375 261.412903 C 63.832104 262.650482 63.970402 262.77951 64.631638 262.644592 C 65.037872 262.561707 77.31826 257.463562 91.921387 251.315369 C 106.524506 245.167175 120.335381 239.345535 122.612213 238.378372 C 125.298843 237.237137 126.751907 236.470795 126.751907 236.195114 C 126.751907 235.906799 123.220634 234.278809 115.760307 231.127747 C 109.714935 228.57431 101.509789 225.122543 97.526649 223.457153 L 90.284599 220.429153 Z M 214.396545 262.649719 C 214.709122 262.622253 215.116699 262.278625 215.302277 261.886078 C 215.487869 261.493561 216.158249 259.788086 216.792023 258.096161 C 217.425812 256.404236 217.874924 254.839005 217.790054 254.617859 C 217.705185 254.396713 216.586349 253.779343 215.303741 253.245926 C 214.021133 252.712524 211.687012 251.787781 210.116776 251.190948 C 208.546555 250.594131 205.142014 249.281036 202.551132 248.272964 C 199.960251 247.264908 197.519257 246.210297 197.126709 245.929382 C 196.734146 245.648499 196.123901 244.993958 195.770599 244.474884 C 195.329224 243.826431 195.128235 243.110901 195.128235 242.188171 C 195.128235 241.267609 195.330566 240.544983 195.771576 239.89064 C 196.125397 239.365616 196.848419 238.682892 197.378265 238.373459 C 197.927185 238.052887 198.847946 237.814972 199.518509 237.820419 C 200.356064 237.82724 203.603424 239.004669 210.781006 241.903992 C 219.355209 245.367477 220.924667 245.918625 221.254013 245.581848 C 221.467087 245.363953 222.378067 243.2108 223.278397 240.797043 C 224.452835 237.648407 224.838013 236.285797 224.641617 235.974487 C 224.491058 235.735825 188.400711 220.3909 144.440826 201.874664 C 87.122604 177.731781 64.392624 168.282089 64.08551 168.467987 C 63.849979 168.610565 61.503685 174.43277 58.871525 181.40625 C 56.239361 188.379715 54.119553 194.393219 54.160839 194.769562 C 54.229599 195.396393 60.933323 198.275864 134.032059 229.076752 C 177.919937 247.569366 214.083969 262.677216 214.396545 262.649719 Z M 188.7108 210.414337 C 189.02829 210.361801 196.415512 207.324142 205.126831 203.663971 C 213.838181 200.003815 221.800705 196.6082 222.82135 196.118164 C 224.530807 195.297424 224.672745 195.159683 224.621979 194.370758 C 224.591675 193.899719 222.462097 187.93396 219.889587 181.113495 C 217.317078 174.293045 215.020798 168.591888 214.786758 168.44426 C 214.477432 168.249161 205.98349 171.70105 183.689377 181.082077 C 166.81987 188.180511 152.714752 194.182678 152.344681 194.420227 C 151.953751 194.671143 151.777802 194.95813 151.924744 195.105087 C 152.063889 195.244202 157.666794 197.671661 164.375671 200.49942 C 171.084564 203.327209 179.174622 206.736359 182.353607 208.075348 C 185.532593 209.414337 188.393341 210.466873 188.7108 210.414337 Z M 139.17099 175.450745 C 137.679276 175.521301 135.084442 175.476089 133.404678 175.350266 C 131.72493 175.224457 128.767288 174.800934 126.832169 174.409149 C 124.897041 174.017365 121.774826 173.167206 119.893906 172.519913 C 118.012985 171.872635 114.739655 170.450989 112.61985 169.360733 C 110.500046 168.270477 107.545158 166.514648 106.053444 165.458908 C 104.535896 164.384888 101.639549 161.841766 99.477997 159.685364 C 97.225868 157.438629 94.819603 154.700333 93.708099 153.119324 C 92.659424 151.627701 91.096512 149.12265 90.234962 147.552521 C 89.373405 145.982391 88.155159 143.413101 87.52774 141.842972 C 86.90033 140.272858 86.051987 137.832031 85.64254 136.418915 C 85.233101 135.005798 84.641937 132.372284 84.32885 130.566635 C 84.015755 128.760986 83.681877 125.783615 83.586891 123.950272 C 83.487885 122.039322 83.560585 119.15509 83.757263 117.191284 C 83.945953 115.307205 84.40744 112.284836 84.782776 110.474945 C 85.158119 108.665054 85.927269 105.797211 86.492012 104.101974 C 87.056747 102.406754 88.283737 99.432648 89.218674 97.492844 C 90.153603 95.553055 91.772499 92.662598 92.816223 91.069611 C 93.859947 89.476624 95.496506 87.209793 96.453018 86.032211 C 97.409523 84.854614 99.12516 82.9646 100.265533 81.832153 C 101.405907 80.699722 103.849182 78.563293 105.695045 77.084549 C 107.540901 75.605789 110.593147 72.80687 112.477814 70.864685 C 114.36248 68.922501 116.781998 66.241501 117.854523 64.906906 C 118.927055 63.572296 120.746262 61.063309 121.897209 59.331375 C 123.048164 57.599411 124.772446 54.775162 125.728966 53.055237 C 126.685493 51.335312 128.224625 48.127609 129.149246 45.927048 C 130.073883 43.726471 131.294296 40.512878 131.861282 38.785751 C 132.428253 37.058624 133.143585 35.233185 133.450897 34.729218 C 133.758224 34.225266 134.551224 33.536652 135.213135 33.19899 C 136.092957 32.750183 136.745819 32.622177 137.640671 32.723038 C 138.423538 32.811279 139.820297 33.417633 141.515945 34.40538 C 142.974121 35.254791 145.708847 36.996613 147.593124 38.276077 C 149.477386 39.555542 152.432281 41.734177 154.159531 43.117493 C 155.88678 44.500793 158.890976 47.175217 160.83548 49.060623 C 162.780014 50.946045 165.670654 54.042664 167.25914 55.941986 C 168.847656 57.841324 171.189423 60.860245 172.463089 62.650711 C 173.736771 64.441162 175.663879 67.385178 176.745529 69.192963 C 177.827209 71.000732 179.76178 74.661987 181.044601 77.329056 C 182.327408 79.996124 183.976929 83.84581 184.71019 85.883911 C 185.443436 87.922012 186.469116 91.069382 186.989426 92.878098 C 187.50975 94.686798 188.265121 97.772446 188.667984 99.735107 C 189.070877 101.697769 189.591568 104.588211 189.825089 106.15834 C 190.058594 107.72847 190.403061 111.021744 190.590561 113.476761 C 190.793198 116.129745 190.859634 119.893326 190.754379 122.754761 C 190.653702 125.491318 190.333435 128.924423 190.012268 130.709366 C 189.701523 132.436508 189.110901 135.005539 188.699799 136.418304 C 188.288681 137.8311 187.449219 140.271927 186.83432 141.842377 C 186.219437 143.412827 184.975479 146.018921 184.069992 147.633667 C 183.164505 149.248428 181.59259 151.753494 180.576843 153.20047 C 179.561096 154.647461 177.055878 157.512299 175.009674 159.566788 C 172.653015 161.932983 170.138168 164.114716 168.148849 165.518829 C 166.4216 166.737976 163.264267 168.59938 161.132568 169.655289 C 159.000885 170.711197 155.635544 172.114197 153.654083 172.773071 C 151.517258 173.483612 148.389694 174.245956 145.967316 174.646759 C 143.721054 175.018402 140.662704 175.380203 139.17099 175.450745 Z M 136.887024 166.221344 C 139.489319 166.236969 142.429474 166.075623 144.024429 165.829681 C 145.516144 165.599686 147.904388 165.094574 149.33165 164.707245 C 150.758881 164.319916 153.122406 163.487518 154.583878 162.857483 C 156.045349 162.227448 158.28215 161.113342 159.55452 160.381683 C 160.826889 159.650024 162.828781 158.326889 164.003159 157.441376 C 165.177536 156.555878 167.243637 154.73941 168.594498 153.4048 C 169.945343 152.07019 171.815842 149.943924 172.75116 148.679779 C 173.686478 147.415619 175.065018 145.335297 175.81456 144.056839 C 176.564133 142.778381 177.692963 140.47261 178.323074 138.932907 C 178.953201 137.393188 179.83844 134.703186 180.290268 132.955109 C 180.766296 131.113449 181.254211 128.171997 181.450394 125.960922 C 181.666336 123.527512 181.717773 120.290176 181.592407 117.025146 C 181.484268 114.209213 181.205185 110.35527 180.972198 108.460831 C 180.739212 106.566422 180.224701 103.438019 179.828827 101.50882 C 179.432983 99.579636 178.604095 96.274384 177.986893 94.163788 C 177.36969 92.053207 176.364594 89.071136 175.753387 87.536957 C 175.142166 86.002792 174.065689 83.462921 173.361221 81.892792 C 172.656754 80.322662 171.275131 77.624908 170.290955 75.897766 C 169.306778 74.170639 167.673798 71.499466 166.66214 69.961853 C 165.650467 68.42424 163.82695 65.919174 162.609909 64.39505 C 161.392868 62.870926 159.282455 60.417297 157.920105 58.94252 C 156.55777 57.467758 154.190765 55.108307 152.66011 53.699295 C 151.129456 52.290298 148.849304 50.332184 147.593124 49.347931 C 146.336945 48.363678 144.261505 46.837082 142.981049 45.955475 C 141.700592 45.073868 140.401108 44.352554 140.093323 44.352554 C 139.644379 44.352554 139.240158 45.072357 138.049301 47.992386 C 137.232864 49.994293 135.598312 53.494965 134.416946 55.771637 C 133.23558 58.048309 131.069427 61.709564 129.603271 63.90773 C 128.137115 66.105911 125.805412 69.317535 124.421715 71.044662 C 123.038002 72.77179 120.298302 75.795898 118.333481 77.764877 C 116.368652 79.733856 113.206261 82.585449 111.305923 84.101776 C 109.405594 85.618088 106.911079 87.861038 105.762573 89.086121 C 104.614052 90.311188 102.952095 92.2836 102.069321 93.469269 C 101.186554 94.654907 99.856781 96.661194 99.11425 97.927628 C 98.371735 99.194092 97.250313 101.41507 96.622208 102.863144 C 95.994102 104.311203 95.111618 106.736969 94.661118 108.253723 C 94.210617 109.770477 93.638985 112.231873 93.390831 113.72348 C 93.142677 115.215103 92.855087 117.848633 92.751755 119.57576 C 92.641319 121.421448 92.705917 124.187103 92.908455 126.28447 C 93.097984 128.247131 93.629387 131.312576 94.089355 133.096558 C 94.549309 134.880554 95.438881 137.568405 96.066162 139.06958 C 96.693451 140.57074 97.811172 142.829987 98.549995 144.090149 C 99.288811 145.350281 100.658562 147.415619 101.593872 148.679779 C 102.529182 149.943924 104.398201 152.07019 105.747253 153.4048 C 107.096291 154.73941 109.162392 156.551224 110.338585 157.431061 C 111.514763 158.310898 113.50489 159.624756 114.76107 160.350739 C 116.017258 161.076721 118.225754 162.181366 119.668839 162.805496 C 121.111931 163.429626 123.552933 164.285721 125.093262 164.707916 C 126.633606 165.130127 128.921677 165.63739 130.177856 165.835175 C 131.434052 166.032959 134.453171 166.206726 136.887024 166.221344 Z M 136.908096 158.2323 C 135.561813 158.218201 133.43251 158.023651 132.176331 157.799988 C 130.920151 157.576294 129.057297 157.12851 128.036636 156.804901 C 127.015991 156.481293 125.024666 155.664734 123.61145 154.990326 C 122.198242 154.315948 120.087646 153.085785 118.921234 152.256653 C 117.754822 151.427521 115.989571 149.926224 114.998466 148.920441 C 114.007362 147.914658 112.628899 146.296158 111.935219 145.323792 C 111.241547 144.35141 110.155579 142.592361 109.521965 141.414764 C 108.888344 140.237167 107.987404 138.117508 107.519867 136.704391 C 107.05233 135.291275 106.499008 133.107376 106.290253 131.851273 C 106.081497 130.595184 105.919334 128.218582 105.929893 126.569946 C 105.942642 124.581192 106.16819 122.56369 106.600098 120.574936 C 106.958145 118.9263 107.675369 116.524521 108.193924 115.237625 C 108.712471 113.950729 109.733612 111.894485 110.463112 110.668198 C 111.192619 109.44191 112.562263 107.502197 113.506775 106.357742 C 114.451286 105.213287 116.14431 103.544052 117.269043 102.648331 C 118.393776 101.752609 120.328873 100.056274 121.569267 98.878677 C 122.809654 97.70108 124.500107 95.902588 125.325844 94.882004 C 126.151566 93.86142 127.3769 92.127136 128.048828 91.028061 C 128.720749 89.92897 129.682388 88.194702 130.185837 87.174118 C 130.68927 86.153534 131.59259 83.96965 132.193222 82.320999 C 132.835342 80.558502 133.595886 79.010666 134.039185 78.564194 C 134.453842 78.146561 135.328476 77.644485 135.982819 77.448471 C 136.930313 77.164612 137.41954 77.163986 138.38588 77.445419 C 139.267227 77.702087 140.083725 78.307297 141.369873 79.657196 C 142.343719 80.679337 143.901154 82.628204 144.830826 83.988022 C 145.760513 85.347839 147.042145 87.498993 147.678925 88.768341 C 148.315689 90.037689 149.285614 92.36586 149.834274 93.942047 C 150.38295 95.518234 151.066696 98.199783 151.353714 99.901016 C 151.674393 101.801712 151.875565 104.429504 151.875565 106.717331 C 151.875565 109.089569 151.690536 111.424545 151.365585 113.152527 C 151.085083 114.644135 150.520645 116.934799 150.111267 118.242874 C 149.701904 119.550934 148.366653 122.658981 147.144043 125.149643 C 145.099625 129.314438 144.828705 129.725235 143.770401 130.265106 C 143.137512 130.587952 142.15979 130.852112 141.597702 130.852112 C 141.035614 130.852112 140.06868 130.593445 139.448959 130.277313 C 138.703537 129.897064 138.116974 129.300308 137.715866 128.514114 C 137.263672 127.627823 137.145294 126.993774 137.250168 126.020035 C 137.337128 125.212616 138.11937 123.214066 139.299988 120.782852 C 140.519882 118.270798 141.481598 115.79715 141.963745 113.931412 C 142.626404 111.367142 142.718323 110.455048 142.718323 106.443817 C 142.718323 102.455353 142.624527 101.513428 141.978607 99.015305 C 141.571762 97.441818 140.741501 95.12944 140.13356 93.876709 C 139.525635 92.623962 138.830032 91.562592 138.587784 91.518097 C 138.29512 91.46434 137.697815 92.2444 136.807739 93.842758 C 136.070984 95.165802 134.675766 97.321884 133.707275 98.634018 C 132.738785 99.946182 131.064896 102.002243 129.987534 103.203064 C 128.910156 104.4039 127.09903 106.1297 125.962807 107.038193 C 124.826591 107.946686 123.023155 109.533508 121.955193 110.564423 C 120.88723 111.595352 119.564804 113.111343 119.016472 113.933273 C 118.468132 114.755203 117.645416 116.181625 117.188202 117.103088 C 116.73098 118.024551 116.076248 119.857117 115.733238 121.175461 C 115.31295 122.790802 115.099297 124.503387 115.078072 126.427216 C 115.060745 127.997345 115.217461 130.117004 115.426315 131.137589 C 115.635178 132.158173 116.13633 133.828201 116.539986 134.848785 C 116.943642 135.86937 117.716606 137.41095 118.257668 138.274521 C 118.798737 139.138077 120.096207 140.726929 121.140938 141.805267 C 122.185677 142.883621 123.875534 144.310379 124.896187 144.975861 C 125.91684 145.641327 127.586983 146.515137 128.607635 146.917648 C 129.628281 147.320175 131.298431 147.820374 132.319092 148.029221 C 133.366547 148.243561 135.791336 148.395966 137.886261 148.37915 C 141.264679 148.35202 141.841064 148.267258 144.309921 147.434448 C 145.801636 146.931259 147.940521 145.948074 149.063004 145.249573 C 150.246323 144.513245 152.045761 142.981186 153.345444 141.603516 C 154.790497 140.071747 156.01123 138.424118 156.780838 136.966751 C 157.437439 135.723358 158.230179 133.782028 158.54248 132.652649 C 158.854782 131.523285 159.19249 129.40361 159.292938 127.942276 C 159.393402 126.480957 159.675339 124.728455 159.919495 124.047867 C 160.205643 123.250168 160.681458 122.61525 161.258408 122.26123 C 161.750671 121.959167 162.586639 121.590668 163.116104 121.442368 C 163.80925 121.248184 164.408752 121.285538 165.257324 121.575745 C 165.905533 121.797424 166.782867 122.364456 167.20697 122.835815 C 167.631073 123.307159 168.12793 124.243835 168.311111 124.917267 C 168.517426 125.675812 168.577484 127.024307 168.468948 128.461136 C 168.372604 129.736816 168.085327 131.792252 167.830597 133.028778 C 167.575851 134.265305 167.045334 136.176254 166.651672 137.275345 C 166.257996 138.374435 165.51413 140.108704 164.998627 141.129288 C 164.483139 142.149872 163.416656 143.898117 162.628662 145.014282 C 161.840683 146.130432 160.37439 147.877396 159.370255 148.896393 C 158.366119 149.915405 156.590225 151.422638 155.423813 152.245819 C 154.257385 153.069 152.467972 154.165604 151.447327 154.682739 C 150.426666 155.19986 148.499573 156.007996 147.164886 156.478577 C 145.830185 156.949158 143.527145 157.542023 142.047012 157.796051 C 140.566895 158.050079 138.254364 158.246384 136.908096 158.2323 Z M 7.670877 104.012085 C 6.926739 104.015381 6.146043 103.782928 5.529655 103.374527 C 4.991409 103.017899 4.254762 102.117172 3.874841 101.35112 C 3.265544 100.122589 3.223357 99.823853 3.491909 98.639511 C 3.713389 97.662766 4.085572 97.053696 4.890381 96.350906 C 5.493551 95.824203 17.613882 87.954559 31.824451 78.862808 C 46.035019 69.771042 57.970631 62.104111 58.348022 61.825165 C 59.034203 61.317978 59.034203 61.317978 58.282688 59.044388 C 57.869354 57.793915 57.367867 55.807327 57.16827 54.62973 C 56.968674 53.452133 56.805363 51.589386 56.805363 50.490311 C 56.805363 49.391235 56.97504 47.492157 57.182426 46.270157 C 57.389812 45.048157 57.853249 43.18541 58.212296 42.130737 C 58.571335 41.07605 59.283722 39.378113 59.795383 38.357529 C 60.307041 37.336945 61.174995 35.859604 61.724171 35.074554 C 62.273346 34.28949 63.44685 32.893173 64.331955 31.971619 C 65.217056 31.050079 66.712074 29.719345 67.654213 29.01445 C 68.596352 28.30954 70.266502 27.279266 71.365662 26.72493 C 72.464828 26.170609 74.07074 25.471619 74.934364 25.171631 C 75.797989 24.871628 77.339668 24.451019 78.360321 24.236938 C 79.380974 24.022858 81.051117 23.761307 82.07177 23.655716 C 83.092422 23.550125 84.980064 23.608337 86.266548 23.78508 C 87.553032 23.961838 89.332916 24.295868 90.221863 24.52739 C 91.110802 24.758911 92.793465 25.346039 93.961136 25.832108 C 95.128799 26.318176 97.058487 27.351868 98.249336 28.129211 C 99.440186 28.906555 101.101929 30.192642 101.942093 30.987198 C 103.087967 32.070831 103.634254 32.400345 104.128311 32.305908 C 104.490555 32.236664 107.159592 30.654999 110.059502 28.791107 C 112.959412 26.9272 116.017342 25.025803 116.854889 24.565765 C 118.105774 23.878723 118.608696 23.755386 119.671097 23.875137 C 120.382446 23.955307 121.303101 24.26651 121.716965 24.566711 C 122.130844 24.866913 122.770432 25.712479 123.138275 26.445724 C 123.678154 27.521912 123.767334 28.014206 123.600876 28.99942 C 123.455246 29.861328 123.090996 30.516663 122.361076 31.22995 C 121.792603 31.785446 119.528862 33.386627 117.330536 34.788101 C 115.132217 36.189575 112.327492 37.983521 111.097816 38.774689 C 108.862038 40.213135 108.862038 40.213135 109.017197 41.355042 C 109.102531 41.983093 109.365051 43.180679 109.600578 44.016342 C 109.836105 44.85202 110.173164 46.586273 110.349609 47.870285 C 110.526039 49.154282 110.585274 51.039856 110.481247 52.06044 C 110.377213 53.081024 110.050285 55.042038 109.754723 56.418243 C 109.459167 57.794464 108.693108 60.042587 108.052361 61.414093 C 107.411613 62.785599 106.421211 64.614288 105.851463 65.477859 C 105.281715 66.341431 104.03418 67.869827 103.079155 68.874313 C 102.12413 69.878799 100.571915 71.273773 99.629776 71.974243 C 98.687645 72.674713 97.017494 73.701691 95.918327 74.256393 C 94.819168 74.811127 93.056877 75.558853 92.002121 75.91803 C 90.94738 76.277222 89.084511 76.740753 87.862427 76.94812 C 86.64035 77.155487 84.741158 77.32515 83.641998 77.32515 C 82.542831 77.32515 80.643646 77.155487 79.421562 76.94812 C 78.199486 76.740753 76.336617 76.277512 75.281868 75.918716 C 74.227119 75.559921 72.657532 74.908905 71.793907 74.472 C 70.930283 74.03511 69.45433 73.155991 68.514015 72.518417 C 67.5737 71.880829 66.247765 70.846161 65.56749 70.219147 C 64.461533 69.199768 64.24968 69.110153 63.565704 69.372223 C 63.144997 69.533432 51.302425 77.03418 37.248878 86.040558 C 23.195332 95.046951 11.054609 102.773804 10.269495 103.211365 C 9.36533 103.715271 8.412675 104.00882 7.670877 104.012085 Z M 83.499252 68.01825 C 85.532837 68.031937 87.380096 67.882263 88.352684 67.624969 C 89.216309 67.396484 90.88414 66.723572 92.058983 66.129593 C 93.546074 65.377762 94.8088 64.430267 96.215164 63.011002 C 97.570679 61.643051 98.585167 60.281219 99.298813 58.871582 C 99.883759 57.716156 100.549301 56.064255 100.777794 55.200684 C 101.021034 54.281372 101.19323 52.328964 101.19323 50.490311 C 101.19323 48.651657 101.021034 46.699249 100.777794 45.779938 C 100.549301 44.916367 99.87635 43.248642 99.282326 42.073898 C 98.530434 40.586899 97.582878 39.324265 96.163521 37.917969 C 94.795486 36.562576 93.433563 35.548141 92.023827 34.834534 C 90.868324 34.249619 89.216309 33.584137 88.352684 33.355652 C 87.433296 33.112427 85.480766 32.940247 83.641998 32.940247 C 81.80323 32.940247 79.850693 33.112427 78.931313 33.355652 C 78.067688 33.584137 76.399849 34.25705 75.225014 34.851028 C 73.737915 35.602859 72.475197 36.550354 71.068832 37.96962 C 69.713318 39.33757 68.69883 40.699402 67.985176 42.109039 C 67.40023 43.264465 66.734688 44.916367 66.506203 45.779938 C 66.262955 46.699249 66.090767 48.651657 66.090767 50.490311 C 66.090767 52.328964 66.262955 54.281372 66.506203 55.200684 C 66.734688 56.064255 67.407654 57.731979 68.001663 58.906723 C 68.753563 60.393723 69.701111 61.656357 71.120476 63.062653 C 72.48494 64.41452 73.854111 65.435135 75.260162 66.148438 C 76.415672 66.73465 78.003448 67.390167 78.788559 67.605194 C 79.579926 67.821899 81.679123 68.005966 83.499252 68.01825 Z M 173.002274 26.82872 C 159.505447 21.438385 154.730072 19.486816 153.682693 19.014313 C 152.104004 18.302094 151.676819 17.956146 151.184601 16.991364 C 150.858032 16.351288 150.590836 15.367737 150.590836 14.805664 C 150.590836 14.243622 150.849518 13.276733 151.165665 12.657074 C 151.53566 11.931885 152.142029 11.325531 152.867279 10.955566 C 153.486984 10.639435 154.447891 10.380768 155.002609 10.380768 C 155.626785 10.380768 159.303558 11.700409 164.649475 13.84314 C 169.400543 15.747467 174.041977 17.578094 174.963791 17.911194 C 176.639816 18.516876 176.639816 18.516876 177.67601 17.243988 C 178.245926 16.543884 179.547272 15.084869 180.567932 14.00174 C 181.588577 12.91861 183.568024 11.276947 184.966705 10.353577 C 186.365372 9.430237 188.549423 8.272369 189.820129 7.780518 C 191.090836 7.288696 193.351028 6.631927 194.842728 6.321014 C 196.97052 5.877533 198.231644 5.787445 200.695404 5.902954 C 202.485092 5.986847 204.818253 6.306824 206.119827 6.646881 C 207.376022 6.975067 209.617874 7.827881 211.10173 8.542023 C 212.585587 9.256134 214.649414 10.470337 215.687988 11.240204 C 216.726578 12.010101 218.217484 13.319977 219.001129 14.151062 C 219.784775 14.982117 220.98114 16.481873 221.659714 17.483795 C 222.338287 18.485718 223.392944 20.371216 224.003403 21.673767 C 224.613846 22.976349 225.395874 25.239731 225.741241 26.703537 C 226.161697 28.485626 226.372635 30.308243 226.379623 32.219772 C 226.385345 33.789902 226.325821 35.781097 226.247299 36.644669 C 226.104553 38.214798 226.104553 38.214798 227.389297 38.840622 C 228.095886 39.184814 237.08902 42.823929 247.374023 46.927551 C 257.659027 51.031158 266.823242 54.722076 267.738922 55.129593 C 268.854492 55.626038 269.631653 56.205765 270.094269 56.88652 C 270.614746 57.65242 270.784698 58.283615 270.784698 59.45079 C 270.784698 60.670822 270.630249 61.201553 270.056213 61.954117 C 269.655518 62.479385 268.97052 63.093857 268.533966 63.319595 C 268.097412 63.545334 267.429565 63.802353 267.049866 63.890732 C 266.655975 63.982407 265.562592 63.762131 264.503784 63.377808 C 263.483124 63.007309 253.927094 59.2108 243.268158 54.941116 C 232.609207 50.671417 223.545837 47.109558 223.127319 47.025848 C 222.449768 46.890366 222.18129 47.115356 220.676727 49.079544 C 219.747421 50.292755 218.211746 51.931885 217.264145 52.722031 C 216.316528 53.512177 214.798645 54.639664 213.891037 55.227539 C 212.983459 55.81543 211.249069 56.713623 210.03685 57.223541 C 208.824615 57.733444 206.869263 58.388916 205.691589 58.68013 C 204.513916 58.971329 202.329865 59.286026 200.83815 59.37944 C 198.944183 59.498032 197.337875 59.41156 195.513748 59.092804 C 194.077026 58.841751 191.813644 58.242706 190.483963 57.761612 C 189.154297 57.280518 187.002975 56.232498 185.703232 55.432678 C 184.403519 54.632889 182.387711 53.073868 181.223679 51.968246 C 180.059631 50.862595 178.366348 48.850388 177.4608 47.496674 C 176.555252 46.14296 175.389908 44.015884 174.87114 42.769852 C 174.352386 41.523819 173.675125 39.282639 173.366119 37.789444 C 172.919022 35.628891 172.824524 34.232697 172.90329 30.95163 L 173.002274 26.82872 Z M 199.436371 50.323792 C 201.016235 50.339111 202.673386 50.146912 204.093948 49.783615 C 205.306778 49.47345 207.091782 48.799026 208.060593 48.284866 C 209.029419 47.770737 210.699341 46.524078 211.771515 45.514511 C 212.843689 44.504974 214.219543 42.83493 214.828964 41.803314 C 215.438354 40.771698 216.233337 39.028397 216.595566 37.929321 C 217.130035 36.307632 217.25383 35.312195 217.252335 32.647995 C 217.250839 29.97496 217.125412 28.982254 216.57724 27.30484 C 216.206955 26.171753 215.437195 24.455673 214.866653 23.491287 C 214.296127 22.526947 212.91658 20.870941 211.801041 19.81134 C 210.552582 18.625549 208.988556 17.492523 207.733185 16.864532 C 206.611435 16.303375 204.713806 15.626251 203.516251 15.359863 C 201.951767 15.01181 200.565201 14.914337 198.590408 15.01355 C 196.672913 15.109894 195.222565 15.368988 193.793213 15.870514 C 192.666382 16.2659 190.841034 17.189941 189.736862 17.92395 C 188.63269 18.657959 187.204544 19.854584 186.563217 20.58313 C 185.921906 21.311646 184.964264 22.622131 184.435135 23.495285 C 183.906021 24.368439 183.187241 25.917862 182.837845 26.938446 C 182.413177 28.178909 182.156189 29.756195 182.062637 31.696335 C 181.962006 33.783371 182.053345 35.177216 182.387848 36.658279 C 182.643677 37.791077 183.242706 39.509476 183.719009 40.476959 C 184.195328 41.444412 185.155228 42.962402 185.852112 43.85025 C 186.549026 44.738113 187.797089 45.975998 188.625626 46.601105 C 189.454147 47.226212 190.932785 48.134674 191.911469 48.619904 C 192.890152 49.105133 194.431824 49.681656 195.337418 49.901077 C 196.243011 50.120483 198.087555 50.310699 199.436371 50.323792 Z"/>
</svg>
