<svg height="279" viewBox="0 0 276 279" width="276" xmlns="http://www.w3.org/2000/svg"><path d="m139.446472 189.977997c69.167786-29.137558 77.190277-32.412781 78.132965-32.398468.649948.009872 1.613495.264221 2.14122.565231.629593.359116 1.224961 1.086105 1.731675 2.114456.424728.861939 3.682861 9.339264 7.240325 18.838532 3.557435 9.499237 6.526154 17.720978 6.597123 18.270523.088302.68367-.079422 1.4048-.531159 2.283813-.567459 1.104218-.960922 1.431382-2.801391 2.3293-1.177674.574555-7.729813 3.386338-14.560303 6.248398-6.83049 2.862076-13.375061 5.638687-14.543488 6.170273-1.832489.833725-2.067856 1.021301-1.712982 1.365173.226288.219254 6.899323 3.121002 14.828995 6.448319 7.929657 3.327316 15.252624 6.452911 16.27327 6.945755 1.60614.775573 1.948654 1.083587 2.546691 2.2901.609162 1.228943.656846 1.550064.402832 2.712036-.158477.724915-3.349426 9.458176-7.091003 19.407257-6.799667 18.080658-6.803451 18.08963-7.968491 18.933838-1.050048.760895-1.335418.832794-2.87857.72525-1.47229-.1026-4.753067-1.406158-23.348511-9.277099-11.899551-5.036713-24.005478-10.137452-26.902054-11.334961-2.89656-1.19748-10.054809-4.191483-15.907196-6.653321-6.783386-2.85347-11.002929-4.47821-11.639938-4.481994-.655441-.003891-4.704895 1.546692-11.769775 4.506805-5.923798 2.481995-22.882264 9.608292-37.685486 15.836212-23.846222 10.03244-27.114289 11.335114-28.663338 11.425385-1.695282.098816-1.782848.068695-2.882435-.991394-.809734-.78067-1.379795-1.74646-1.993366-3.377136-.472626-1.256104-3.540791-9.413605-6.818138-18.127793-4.132138-10.986984-5.989128-16.28154-6.057694-17.271362-.078235-1.129425.040478-1.635971.568676-2.42656.39386-.589508 1.309708-1.326416 2.233807-1.797332.861435-.43898 8.246857-3.601319 16.412048-7.02742 9.211411-3.865097 14.877693-6.389954 14.929833-6.652665.061798-.31134-4.094048-2.17662-15.70229-7.047729-8.682472-3.643372-16.107502-6.854004-16.500057-7.13475-.392559-.280747-1.012352-.948243-1.377316-1.483353-.529968-.777039-.641838-1.260315-.555614-2.400299.073986-.97818 2.254337-7.132263 6.928291-19.555191 5.615334-14.925019 6.977566-18.287186 7.710263-19.030014.48946-.496216 1.422019-1.045502 2.072353-1.220597.989551-.266433 1.429146-.230697 2.694969.219178.831898.295669 15.609718 6.471878 32.839584 13.724914 17.229874 7.253052 34.08973 14.344162 37.466362 15.758026zm-49.161873 30.451156c-27.684814 11.663987-35.887294 15.215226-36.088901 15.41681-.29842.298355-.206051.802536.496837 2.71202.474869 1.290055 1.272995 3.373261 1.77361 4.629364.860878 2.160035.956626 2.282532 1.766696 2.260086.47107-.013046 7.057496-2.691207 14.636506-5.951461 7.579002-3.260254 14.259613-5.987473 14.845794-6.060486.754067-.093903 1.439637.060333 2.343987.527405.70301.363067 1.512604 1.068756 1.799095 1.568191.286491.49942.593964 1.358292.683266 1.908585.115791.713485-.024346 1.3862-.488449 2.344864-.610909 1.261886-.827538 1.426712-3.531701 2.687149-1.58448.73854-6.123649 2.713897-10.087051 4.389679-3.963402 1.675781-9.415459 3.984924-12.115684 5.131439-2.700222 1.146515-5.036358 2.28566-5.191411 2.531448-.203826.32312-.020946 1.147522.660309 2.976578.518223 1.391327 1.203968 3.151733 1.523873 3.912079.520729 1.237579.659027 1.366607 1.320263 1.231689.406234-.082885 12.686622-5.18103 27.289749-11.329223 14.603119-6.148194 28.413994-11.969834 30.690826-12.936997 2.68663-1.141235 4.139694-1.907577 4.139694-2.183258 0-.288315-3.531273-1.916305-10.9916-5.067367-6.045372-2.553437-14.250518-6.005204-18.233658-7.670594zm124.111946 42.220566c.312577-.027466.720154-.371094.905732-.763641.185592-.392517.855972-2.097992 1.489746-3.789917.633789-1.691925 1.082901-3.257156.998031-3.478302-.084869-.221146-1.203705-.838516-2.486313-1.371933-1.282608-.533402-3.616729-1.458145-5.186965-2.054978-1.570221-.596817-4.974762-1.909912-7.565644-2.917984-2.590881-1.008056-5.031875-2.062667-5.424423-2.343582-.392563-.280883-1.002808-.935424-1.35611-1.454498-.441375-.648453-.642364-1.363983-.642364-2.286713 0-.920562.202331-1.643188.643341-2.297531.353821-.525024 1.076843-1.207748 1.606689-1.517181.54892-.320572 1.469681-.558487 2.140244-.55304.837555.006821 4.084915 1.18425 11.262497 4.083573 8.574203 3.463485 10.143661 4.014633 10.473007 3.677856.213074-.217895 1.124054-2.371048 2.024384-4.784805 1.174438-3.148636 1.559616-4.511246 1.36322-4.822556-.150559-.238662-36.240906-15.583587-80.200791-34.099823-57.318222-24.142883-80.048202-33.592575-80.355316-33.406677-.235531.142578-2.581825 5.964783-5.213985 12.938263-2.632164 6.973465-4.751972 12.986969-4.710686 13.363312.06876.626831 6.772484 3.506302 79.87122 34.30719 43.887878 18.492614 80.05191 33.600464 80.364486 33.572967zm-25.685745-52.235382c.31749-.052536 7.704712-3.090195 16.416031-6.750366 8.71135-3.660156 16.673874-7.055771 17.694519-7.545807 1.709457-.82074 1.851395-.958481 1.800629-1.747406-.030304-.471039-2.159882-6.436798-4.732392-13.257263-2.572509-6.82045-4.868789-12.521607-5.102829-12.669235-.309326-.195099-8.803268 3.25679-31.097381 12.637817-16.869507 7.098434-30.974625 13.100601-31.344696 13.33815-.39093.250916-.566879.537903-.419937.68486.139145.139115 5.74205 2.566574 12.450927 5.394333 6.708893 2.827789 14.798951 6.236939 17.977936 7.575928 3.178986 1.338989 6.039734 2.391525 6.357193 2.338989zm-49.53981-34.963592c-1.491714.070556-4.086548.025344-5.766312-.100479-1.679748-.125809-4.63739-.549332-6.572509-.941117-1.935128-.391784-5.057343-1.241943-6.938263-1.889236-1.880921-.647278-5.154251-2.068924-7.274056-3.15918-2.119804-1.090256-5.074692-2.846085-6.566406-3.901825-1.517548-1.07402-4.413895-3.617142-6.575447-5.773544-2.252129-2.246735-4.658394-4.985031-5.769898-6.56604-1.048675-1.491623-2.611587-3.996674-3.473137-5.566803-.861557-1.57013-2.079803-4.13942-2.707222-5.709549-.62741-1.570114-1.475753-4.010941-1.8852-5.424057-.409439-1.413117-1.000603-4.046631-1.31369-5.85228-.313095-1.805649-.646973-4.78302-.741959-6.616363-.099006-1.91095-.026306-4.795182.170372-6.758988.18869-1.884079.650177-4.906448 1.025513-6.716339.375343-1.809891 1.144493-4.677734 1.709236-6.372971.564735-1.69522 1.791725-4.669326 2.726662-6.60913.934929-1.939789 2.553825-4.830246 3.597549-6.423233s2.680283-3.859818 3.636795-5.0374c.956505-1.177597 2.672142-3.067611 3.812515-4.200058 1.140374-1.132431 3.583649-3.26886 5.429512-4.747604 1.845856-1.47876 4.898102-4.277679 6.782769-6.219864 1.884666-1.942184 4.304184-4.623184 5.376709-5.957779 1.072532-1.33461 2.891739-3.843597 4.042686-5.575531 1.150955-1.731964 2.875237-4.556213 3.831757-6.276138.956527-1.719925 2.495659-4.927628 3.42028-7.128189.924637-2.200577 2.14505-5.41417 2.712036-7.141297.566971-1.727127 1.282303-3.552566 1.589615-4.056533.307327-.503952 1.100327-1.192566 1.762238-1.530228.879822-.448807 1.532684-.576813 2.427536-.475952.782867.088241 2.179626.694595 3.875274 1.682342 1.458176.849411 4.192902 2.591233 6.077179 3.870697 1.884262 1.279465 4.839157 3.4581 6.566407 4.841416 1.727249 1.3833 4.731445 4.057724 6.675949 5.94313 1.944534 1.885422 4.835174 4.982041 6.42366 6.881363 1.588516 1.899338 3.930283 4.918259 5.203949 6.708725 1.273682 1.790451 3.20079 4.734467 4.28244 6.542252 1.08168 1.807769 3.016251 5.469024 4.299072 8.136093 1.282807 2.667068 2.932328 6.516754 3.665589 8.554855.733246 2.038101 1.758926 5.185471 2.279236 6.994187.520324 1.8087 1.275695 4.894348 1.678558 6.857009.402893 1.962662.923584 4.853104 1.157105 6.423233.233505 1.57013.577972 4.863404.765472 7.318421.202637 2.652984.269073 6.416565.163818 9.278-.100677 2.736557-.420944 6.169662-.742111 7.954605-.310745 1.727142-.901367 4.296173-1.312469 5.708938-.411118 1.412796-1.25058 3.853623-1.865479 5.424073-.614883 1.57045-1.858841 4.176544-2.764328 5.79129-.905487 1.614761-2.477402 4.119827-3.493149 5.566803-1.015747 1.446991-3.520965 4.311829-5.567169 6.366318-2.356659 2.366195-4.871506 4.547928-6.860825 5.952041-1.727249 1.219147-4.884582 3.080551-7.016281 4.13646-2.131683 1.055908-5.497024 2.458908-7.478485 3.117782-2.136825.710541-5.264389 1.472885-7.686767 1.873688-2.246262.371643-5.304612.733444-6.796326.803986zm-2.283966-9.229401c2.602295.015625 5.54245-.145721 7.137405-.391663 1.491715-.229995 3.879959-.735107 5.307221-1.122436 1.427231-.387329 3.790756-1.219727 5.252228-1.849762 1.461471-.630035 3.698272-1.744141 4.970642-2.4758 1.272369-.731659 3.274261-2.054794 4.448639-2.940307 1.174377-.885498 3.240478-2.701966 4.591339-4.036576 1.350845-1.33461 3.221344-3.460876 4.156662-4.725021.935318-1.26416 2.313858-3.344482 3.0634-4.62294.749573-1.278458 1.878403-3.584229 2.508514-5.123932.630127-1.539719 1.515366-4.229721 1.967194-5.977798.476028-1.84166.963943-4.783112 1.160126-6.994187.215942-2.43341.267379-5.670746.142013-8.935776-.108139-2.815933-.387222-6.669876-.620209-8.564315-.232986-1.894409-.747497-5.022812-1.143371-6.952011-.395844-1.929184-1.224732-5.234436-1.841934-7.345032-.617203-2.110581-1.622299-5.092652-2.233506-6.626831-.611221-1.534165-1.687698-4.074036-2.392166-5.644165-.704467-1.57013-2.08609-4.267884-3.070266-5.995026-.984177-1.727127-2.617157-4.3983-3.628815-5.935913-1.011673-1.537613-2.83519-4.042679-4.052231-5.566803s-3.327454-3.977753-4.689804-5.45253c-1.362335-1.474762-3.72934-3.834213-5.259995-5.243225-1.530654-1.408997-3.810806-3.367111-5.066986-4.351364-1.256179-.984253-3.331619-2.510849-4.612075-3.392456-1.280457-.881607-2.579941-1.602921-2.887726-1.602921-.448944 0-.853165.719803-2.044022 3.639832-.816437 2.001907-2.450989 5.502579-3.632355 7.779251s-3.347519 5.937927-4.813675 8.136093c-1.466156 2.198181-3.797859 5.409805-5.181556 7.136932-1.383713 1.727128-4.123413 4.751236-6.088234 6.720215-1.964829 1.968979-5.12722 4.820572-7.027558 6.336899-1.900329 1.516312-4.394844 3.759262-5.54335 4.984345-1.148521 1.225067-2.810478 3.197479-3.693252 4.383148-.882767 1.185638-2.21254 3.191925-2.955071 4.458359-.742515 1.266464-1.863937 3.487442-2.492042 4.935516-.628106 1.448059-1.51059 3.873825-1.96109 5.390579-.450501 1.516754-1.022133 3.97815-1.270287 5.469757-.248154 1.491623-.535744 4.125153-.639076 5.85228-.110436 1.845688-.045838 4.611343.1567 6.70871.189529 1.962661.720932 5.028106 1.1809 6.812088.459954 1.783996 1.349526 4.471847 1.976807 5.973022.627289 1.50116 1.74501 3.760407 2.483833 5.020569.738816 1.260132 2.108567 3.32547 3.043877 4.58963.93531 1.264145 2.804329 3.390411 4.153381 4.725021 1.349038 1.33461 3.415139 3.146424 4.591332 4.026261 1.176178.879837 3.166305 2.193695 4.422485 2.919678 1.256188.725982 3.464684 1.830627 4.907769 2.454757 1.443092.62413 3.884094 1.480225 5.424423 1.90242 1.540344.422211 3.828415.929474 5.084594 1.127259 1.256196.197784 4.275315.371551 6.709168.386169zm.021072-7.989044c-1.346283-.014099-3.475586-.208649-4.731765-.432312-1.25618-.223694-3.119034-.671478-4.139695-.995087-1.020645-.323608-3.01197-1.140167-4.425186-1.814575-1.413208-.674378-3.523804-1.904541-4.690216-2.733673s-2.931663-2.330429-3.922768-3.336212c-.991104-1.005783-2.369567-2.624283-3.063247-3.596649-.693672-.972382-1.77964-2.731431-2.413254-3.909028-.633621-1.177597-1.534561-3.297256-2.002098-4.710373-.467537-1.413116-1.020859-3.597015-1.229614-4.853118-.208756-1.256089-.370919-3.632691-.36036-5.281327.012749-1.988754.238297-4.006256.670205-5.99501.358047-1.648636 1.075271-4.050415 1.593826-5.337311.518547-1.286896 1.539688-3.34314 2.269188-4.569427.729507-1.226288 2.099151-3.166001 3.043663-4.310456.944511-1.144455 2.637535-2.81369 3.762268-3.709411 1.124733-.895722 3.05983-2.592057 4.300224-3.769654 1.240387-1.177597 2.93084-2.976089 3.756577-3.996673.825722-1.020584 2.051056-2.754868 2.722984-3.853943.671921-1.099091 1.63356-2.833359 2.137009-3.853943.503433-1.020584 1.406753-3.204468 2.007385-4.853119.64212-1.762497 1.402664-3.310333 1.845963-3.756805.414657-.417633 1.289291-.919709 1.943634-1.115723.947494-.283859 1.436721-.284485 2.403061-.003052.881347.256668 1.697845.861878 2.983993 2.211777.973846 1.022141 2.531281 2.971008 3.460953 4.330826.929687 1.359817 2.211319 3.510971 2.848099 4.780319.636764 1.269348 1.606689 3.597519 2.155349 5.173706.548676 1.576187 1.232422 4.257736 1.51944 5.958969.320679 1.900696.521851 4.528488.521851 6.816315 0 2.372238-.185029 4.707214-.50998 6.435196-.280502 1.491608-.84494 3.782272-1.254318 5.090347-.409363 1.30806-1.744614 4.416107-2.967224 6.906769-2.044418 4.164795-2.315338 4.575592-3.373642 5.115463-.632889.322846-1.610611.587006-2.172699.587006s-1.529022-.258667-2.148743-.574799c-.745422-.380249-1.331985-.977005-1.733093-1.763199-.452194-.886291-.570572-1.52034-.465698-2.494079.08696-.807419.869202-2.805969 2.04982-5.237183 1.219894-2.512054 2.18161-4.985702 2.663757-6.85144.662659-2.56427.754578-3.476364.754578-7.487595 0-3.988464-.093796-4.930389-.739716-7.428512-.406845-1.573487-1.237106-3.885865-1.845047-5.138596-.607925-1.252747-1.303528-2.314117-1.545776-2.358612-.292664-.053757-.889969.726303-1.780045 2.324661-.736755 1.323044-2.131973 3.479126-3.100464 4.79126-.96849 1.312164-2.642379 3.368225-3.719741 4.569046-1.077378 1.200836-2.888504 2.926636-4.024727 3.835129-1.136216.908493-2.939652 2.495315-4.007614 3.52623-1.067963 1.030929-2.390389 2.54692-2.938721 3.36885-.54834.82193-1.371056 2.248352-1.82827 3.169815-.457222.921463-1.111954 2.754029-1.454964 4.072373-.420288 1.615341-.633941 3.327926-.655166 5.251755-.017327 1.570129.139389 3.689788.348243 4.710373.208863 1.020584.710015 2.690612 1.113671 3.711196.403656 1.020585 1.17662 2.562165 1.717682 3.425736.541069.863556 1.838539 2.452408 2.88327 3.530746 1.044739 1.078354 2.734596 2.505112 3.755249 3.170594 1.020653.665466 2.690796 1.539276 3.711448 1.941787 1.020646.402527 2.690796.902726 3.711457 1.111573 1.047455.21434 3.472244.366745 5.567169.349929 3.378418-.02713 3.954803-.111892 6.42366-.944702 1.491715-.503189 3.6306-1.486374 4.753083-2.184875 1.183319-.736328 2.982757-2.268387 4.28244-3.646057 1.445053-1.531769 2.665786-3.179398 3.435394-4.636765.656601-1.243393 1.449341-3.184723 1.761642-4.314102.312302-1.129364.65001-3.249039.750458-4.710373.100464-1.461319.382401-3.213821.626557-3.894409.286148-.797699.761963-1.432617 1.338913-1.786637.492263-.302063 1.328231-.670562 1.857696-.818862.693146-.194184 1.292648-.15683 2.14122.133377.648209.221679 1.525543.788711 1.949646 1.26007.424103.471344.92096 1.40802 1.104141 2.081452.206315.758545.266373 2.10704.157837 3.543869-.096344 1.27568-.383621 3.331116-.638351 4.567642-.254746 1.236527-.785263 3.147476-1.178925 4.246567-.393676 1.09909-1.137542 2.833359-1.653045 3.853943-.515488 1.020584-1.581971 2.768829-2.369965 3.884994-.787979 1.11615-2.254272 2.863114-3.258407 3.882111-1.004136 1.019012-2.78003 2.526245-3.946442 3.349426-1.166428.823181-2.955841 1.919785-3.976486 2.43692-1.020661.517121-2.947754 1.325257-4.282441 1.795838-1.334701.470581-3.637741 1.063446-5.117874 1.317474-1.480117.254028-3.792648.450333-5.138916.436249zm-129.237219-54.220215c-.744138.003296-1.524834-.229157-2.141222-.637558-.538246-.356628-1.274893-1.257355-1.654814-2.023407-.609297-1.228531-.651484-1.527267-.382932-2.711609.22148-.976745.593663-1.585815 1.398472-2.288605.60317-.526703 12.723501-8.396347 26.93407-17.488098 14.210568-9.091766 26.14618-16.758697 26.523571-17.037643.686181-.507187.686181-.507187-.065334-2.780777-.413334-1.250473-.914821-3.237061-1.114418-4.414658-.199596-1.177597-.362907-3.040344-.362907-4.139419 0-1.099076.169677-2.998154.377063-4.220154s.670823-3.084747 1.02987-4.13942c.359039-1.054687 1.071426-2.752624 1.583087-3.773208.511658-1.020584 1.379612-2.497925 1.928788-3.282975.549175-.785064 1.722679-2.181381 2.607784-3.102935.885101-.92154 2.380119-2.252274 3.322258-2.957169.942139-.70491 2.612289-1.735184 3.711449-2.28952 1.099166-.554321 2.705078-1.253311 3.568702-1.553299.863625-.300003 2.405304-.720612 3.425957-.934693 1.020653-.21408 2.690796-.475631 3.711449-.581222 1.020652-.105591 2.908294-.047379 4.194778.129364 1.286484.176758 3.066368.510788 3.955315.74231.888939.231521 2.571602.818649 3.739273 1.304718 1.167663.486068 3.097351 1.51976 4.2882 2.297103 1.19085.777344 2.852593 2.063431 3.692757 2.857987 1.145874 1.083633 1.692161 1.413147 2.186218 1.31871.362244-.069244 3.031281-1.650909 5.931191-3.514801 2.89991-1.863907 5.95784-3.765304 6.795387-4.225342 1.250885-.687042 1.753807-.810379 2.816208-.690628.711349.08017 1.632004.391373 2.045868.691574.413879.300202 1.053467 1.145768 1.42131 1.879013.539879 1.076188.629059 1.568482.462601 2.553696-.14563.861908-.50988 1.517243-1.2398 2.23053-.568473.555496-2.832214 2.156677-5.03054 3.558151-2.198319 1.401474-5.003044 3.19542-6.23272 3.986588-2.235778 1.438446-2.235778 1.438446-2.080619 2.580353.085334.628051.347854 1.825637.583381 2.6613.235527.835678.572586 2.569931.749031 3.853943.17643 1.283997.235665 3.169571.131638 4.190155-.104034 1.020584-.430962 2.981598-.726524 4.357803-.295556 1.376221-1.061615 3.624344-1.702362 4.99585-.640748 1.371506-1.63115 3.200195-2.200898 4.063766-.569748.863572-1.817283 2.391968-2.772308 3.396454s-2.50724 2.39946-3.449379 3.09993c-.942131.70047-2.612282 1.727448-3.711449 2.28215-1.099159.554734-2.86145 1.30246-3.916206 1.661637-1.054741.359192-2.91761.822723-4.139694 1.03009-1.222077.207367-3.121269.37703-4.220429.37703-1.099167 0-2.998352-.169663-4.220436-.37703-1.222076-.207367-3.084945-.670608-4.139694-1.029404-1.054749-.358795-2.624336-1.009811-3.487961-1.446716-.863624-.43689-2.339577-1.316009-3.279892-1.953583-.940315-.637588-2.26625-1.672256-2.946525-2.29927-1.105957-1.019379-1.31781-1.108994-2.001786-.846924-.420707.161209-12.263279 7.661957-26.316826 16.668335-14.053546 9.006393-26.194269 16.733246-26.979383 17.170807-.904165.503906-1.85682.797455-2.598618.80072zm75.828375-35.993835c2.033585.013687 3.880844-.135987 4.853432-.393281.863625-.228485 2.531456-.901397 3.706299-1.495376 1.487091-.751831 2.749817-1.699326 4.156181-3.118591 1.355515-1.367951 2.370003-2.729783 3.083649-4.13942.584946-1.155426 1.250488-2.807327 1.478981-3.670898.24324-.919312.415436-2.87172.415436-4.710373 0-1.838654-.172196-3.791062-.415436-4.710373-.228493-.863571-.901444-2.531296-1.495468-3.70604-.751892-1.486999-1.699448-2.749633-3.118805-4.155929-1.368035-1.355393-2.729958-2.369828-4.139694-3.083435-1.155503-.584915-2.807518-1.250397-3.671143-1.478882-.919388-.243225-2.871918-.415405-4.710686-.415405s-3.791305.17218-4.710685.415405c-.863625.228485-2.531464.901398-3.706299 1.495376-1.487099.751831-2.749817 1.699326-4.156182 3.118592-1.355514 1.36795-2.370002 2.729782-3.083656 4.139419-.584946 1.155426-1.250488 2.807328-1.478973 3.670899-.243248.919311-.415436 2.871719-.415436 4.710373 0 1.838653.172188 3.791061.415436 4.710373.228485.863571.901451 2.531295 1.49546 3.706039.7519 1.487 1.699448 2.749634 3.118813 4.15593 1.364464 1.351867 2.733635 2.372482 4.139686 3.085785 1.15551.586212 2.743286 1.241729 3.528397 1.456756.791367.216705 2.890564.400772 4.710693.413056zm89.503022-41.18953c-13.496827-5.390335-18.272202-7.341904-19.319581-7.814407-1.578689-.712219-2.005874-1.058167-2.498092-2.022949-.326569-.640076-.593765-1.623627-.593765-2.1857 0-.562042.258682-1.528931.574829-2.14859.369995-.725189.976364-1.331543 1.701614-1.701508.619705-.316131 1.580612-.574798 2.13533-.574798.624176 0 4.300949 1.319641 9.646866 3.462372 4.751068 1.904327 9.392502 3.734954 10.314316 4.068054 1.676025.605682 1.676025.605682 2.712219-.667206.569916-.700104 1.871262-2.159119 2.891922-3.242248 1.020645-1.08313 3.000092-2.724793 4.398773-3.648163 1.398667-.92334 3.582718-2.081208 4.853424-2.573059 1.270707-.491822 3.530899-1.148591 5.022599-1.459504 2.127792-.443481 3.388916-.533569 5.852676-.41806 1.789688.083893 4.122849.40387 5.424423.743927 1.256195.328186 3.498047 1.181 4.981903 1.895142 1.483857.714111 3.547684 1.928314 4.586258 2.698181 1.03859.769897 2.529496 2.079773 3.313141 2.910858.783646.831055 1.980011 2.330811 2.658585 3.332733.678573 1.001923 1.73323 2.887421 2.343689 4.189972.610443 1.302582 1.392471 3.565964 1.737838 5.02977.420456 1.782089.631394 3.604706.638382 5.516235.005722 1.57013-.053802 3.561325-.132324 4.424897-.142746 1.570129-.142746 1.570129 1.141998 2.195953.706589.344192 9.699723 3.983307 19.984726 8.086929 10.285004 4.103607 19.449219 7.794525 20.364899 8.202042 1.11557.496445 1.892731 1.076172 2.355347 1.756927.520477.7659.690429 1.397095.690429 2.56427 0 1.220032-.154449 1.750763-.728485 2.503327-.400695.525268-1.085693 1.13974-1.522247 1.365478-.436554.225739-1.104401.482758-1.4841.571137-.393891.091675-1.487274-.128601-2.546082-.512924-1.02066-.370499-10.57669-4.167008-21.235626-8.436692-10.658951-4.269699-19.722321-7.831558-20.140839-7.915268-.677551-.135482-.946029.089508-2.450592 2.053696-.929306 1.213211-2.464981 2.852341-3.412582 3.642487-.947617.790146-2.4655 1.917633-3.373108 2.505508-.907578.587891-2.641968 1.486084-3.854187 1.996002-1.212235.509903-3.167587 1.165375-4.345261 1.456589-1.177673.291199-3.361724.605896-4.853439.69931-1.893967.118592-3.500275.03212-5.324402-.286636-1.436722-.251053-3.700104-.850098-5.029785-1.331192-1.329666-.481094-3.480988-1.529114-4.780731-2.328934-1.299713-.799789-3.315521-2.35881-4.479553-3.464432-1.164048-1.105651-2.857331-3.117858-3.762879-4.471572s-2.070892-3.48079-2.58966-4.726822c-.518754-1.246033-1.196015-3.487213-1.505021-4.980408-.447097-2.160553-.541595-3.556747-.462829-6.837814zm26.434097 23.495072c1.579864.015319 3.237015-.17688 4.657577-.540177 1.21283-.310165 2.997834-.984589 3.966645-1.498749.968826-.514129 2.638748-1.760788 3.710922-2.770355 1.072174-1.009537 2.448028-2.679581 3.057449-3.711197.60939-1.031616 1.404373-2.774917 1.766602-3.873993.534469-1.621689.658264-2.617126.656769-5.281326-.001496-2.673035-.126923-3.665741-.675095-5.343155-.370285-1.133087-1.140045-2.849167-1.710587-3.813553-.570526-.96434-1.950073-2.620346-3.065612-3.679947-1.248459-1.185791-2.812485-2.318817-4.067856-2.946808-1.12175-.561157-3.019379-1.238281-4.216934-1.504669-1.564484-.348053-2.95105-.445526-4.925843-.346313-1.917495.096344-3.367843.355438-4.797195.856964-1.126831.395386-2.952179 1.319427-4.056351 2.053436s-2.532318 1.930634-3.173645 2.65918c-.641311.728516-1.598953 2.039001-2.128082 2.912155-.529114.873154-1.247894 2.422577-1.59729 3.443161-.424668 1.240463-.681656 2.817749-.775208 4.757889-.100631 2.087036-.009292 3.480881.325211 4.961944.255829 1.132798.854858 2.851197 1.331161 3.81868.476319.967453 1.436219 2.485443 2.133103 3.373291.696914.887863 1.944977 2.125748 2.773514 2.750855.828521.625107 2.307159 1.533569 3.285843 2.018799.978683.485229 2.520355 1.061752 3.425949 1.281173.905593.219406 2.750137.409622 4.098953.422715z" style="fill:#335060;fill-rule:evenodd;stroke:#335060;stroke-width:3.428686;stroke-linecap:round;stroke-linejoin:round"/></svg>