<?xml version="1.0" encoding="UTF-8"?>
<!-- Generated by Pixelmator Pro 3.2.3 -->
<svg width="203" height="247" viewBox="0 0 203 247" xmlns="http://www.w3.org/2000/svg" xmlns:xlink="http://www.w3.org/1999/xlink">
    <path id="Shape-copy-4" fill="#335060" fill-rule="evenodd" stroke="#335060" stroke-width="3.428686" stroke-linecap="round" stroke-linejoin="round" d="M 167.412766 108.516479 C 182.079315 108.791656 184.592239 108.929977 185.69902 109.218155 C 186.515259 109.430679 188.056503 110.036224 189.124039 110.563797 C 190.506409 111.246948 191.589066 112.047028 192.885956 113.343826 C 194.2453 114.703094 194.975815 115.709412 195.767776 117.313644 C 196.448608 118.692841 196.979599 120.251938 197.250046 121.666031 C 197.625046 123.626801 197.638046 124.49572 197.368073 129.557434 C 197.201202 132.685852 196.888519 136.505554 196.673187 138.045654 C 196.45787 139.585754 195.990509 142.163177 195.634628 143.773285 C 195.278732 145.383392 194.582733 147.789001 194.087967 149.11908 C 193.593201 150.449188 192.697906 152.511139 192.09845 153.701202 C 191.498962 154.891266 190.437347 156.66684 189.739273 157.646912 C 189.041199 158.626984 187.856339 160.05069 187.106247 160.81073 C 186.356155 161.57077 184.868744 162.84166 183.800873 163.634918 C 182.733032 164.428177 180.785492 165.605682 179.473038 166.251587 C 178.160583 166.897491 176.216476 167.714127 175.152802 168.066345 C 174.089127 168.418579 171.912476 168.957138 170.315796 169.263184 C 168.719131 169.569199 167.282471 169.94455 167.12323 170.09729 C 166.963974 170.250031 166.643845 171.537323 166.411819 172.957916 C 166.179794 174.37854 165.7117 176.580505 165.371628 177.851196 C 165.031555 179.121887 164.334793 181.281616 163.823318 182.650574 C 163.311813 184.019531 162.347031 186.227844 161.679337 187.557922 C 161.011658 188.888 159.752274 191.064514 158.880707 192.394592 C 158.009125 193.724686 156.657898 195.614807 155.87793 196.594864 C 155.097992 197.574936 153.572052 199.293228 152.486984 200.4133 C 151.401901 201.533356 149.882675 202.965271 149.110886 203.595322 C 148.339096 204.225357 147.702072 204.884033 147.695282 205.059052 C 147.685516 205.310547 151.229431 205.377258 164.599884 205.377258 C 176.006699 205.377258 181.956253 205.469208 182.865906 205.659592 C 183.607895 205.814865 184.588303 206.168503 185.044601 206.445435 C 185.5009 206.722351 186.15564 207.429077 186.499573 208.01593 C 186.843521 208.602783 187.197906 209.709702 187.28714 210.475754 C 187.387833 211.340515 187.294067 212.764862 187.03981 214.232605 C 186.814575 215.532822 186.353989 217.387421 186.016296 218.353912 C 185.678604 219.320419 184.936584 221.005875 184.367386 222.099365 C 183.798172 223.192871 182.420929 225.301147 181.306793 226.784454 C 180.150574 228.323837 178.482422 230.159744 177.420212 231.06192 C 176.396713 231.931244 174.585526 233.309311 173.39537 234.124298 C 172.205215 234.939285 169.935287 236.255188 168.351059 237.048523 C 166.766861 237.841873 164.430542 238.839417 163.159271 239.265305 C 161.887985 239.691193 159.714645 240.259308 158.32962 240.527771 C 155.88916 241.000824 153.949844 241.015244 95.548889 240.994446 C 38.515678 240.974136 35.163609 240.948364 32.995178 240.513382 C 31.735016 240.260605 29.787487 239.74733 28.667341 239.372803 C 27.547194 238.99826 25.37133 238.097839 23.832088 237.371887 C 22.292845 236.64592 20.001635 235.378113 18.740511 234.55455 C 17.479387 233.730972 15.583272 232.329681 14.52692 231.440552 C 13.47057 230.551437 12.085858 229.220581 11.449786 228.483124 C 10.813713 227.745667 9.707171 226.338379 8.990806 225.355835 C 8.274439 224.373291 7.165826 222.466461 6.52722 221.118454 C 5.888615 219.770432 5.127661 217.767792 4.836213 216.668137 C 4.544764 215.568481 4.245142 213.561432 4.170386 212.208054 C 4.04938 210.01738 4.096819 209.618561 4.602695 208.573639 C 4.915222 207.928085 5.56288 207.100967 6.041936 206.735596 C 6.520992 206.370224 7.568949 205.916916 8.370728 205.728241 C 9.515861 205.458771 13.473029 205.384354 26.821644 205.381226 C 40.250984 205.378082 43.812187 205.310516 43.802418 205.059052 C 43.79562 204.884033 43.158596 204.225357 42.38681 203.595322 C 41.615032 202.965271 40.095783 201.533356 39.010712 200.4133 C 37.92564 199.293228 36.399712 197.574936 35.619759 196.594864 C 34.839806 195.614807 33.488205 193.724686 32.616203 192.394592 C 31.744196 191.064514 30.364254 188.601624 29.549662 186.921524 C 28.735069 185.241409 27.668312 182.70787 27.17909 181.291412 C 26.689871 179.874969 25.998489 177.412094 25.642691 175.818344 C 25.28689 174.224594 24.848118 171.603271 24.667643 169.993164 C 24.415918 167.747437 24.3395 159.062622 24.3395 132.69986 C 24.3395 105.195297 24.405718 98.115326 24.671154 97.238693 C 24.859875 96.615417 25.430086 95.716125 25.994263 95.151993 C 26.558439 94.587845 27.457794 94.017685 28.08111 93.828964 C 28.969059 93.560135 41.783653 93.49733 95.748848 93.49733 C 149.71405 93.49733 162.528625 93.560135 163.41658 93.828964 C 164.038803 94.017334 164.938904 94.587509 165.50032 95.14888 C 166.04393 95.692444 166.627167 96.574188 166.796448 97.108307 C 166.968185 97.650299 167.172379 100.385574 167.258499 103.297958 L 167.412766 108.516479 Z M 95.621559 230.819122 C 154.628891 230.829758 155.213409 230.824966 157.348969 230.313065 C 158.534775 230.028839 160.53035 229.386047 161.7836 228.884674 C 163.036865 228.383286 165.035583 227.398193 166.22522 226.695587 C 167.466827 225.962265 169.295959 224.546646 170.519318 223.372253 C 171.74707 222.193634 173.153122 220.520004 173.836212 219.424072 C 174.488388 218.377808 175.069946 217.194855 175.128586 216.795303 C 175.235214 216.068848 175.235214 216.068848 95.748848 216.068848 C 16.262482 216.068848 16.262482 216.068848 16.36911 216.795303 C 16.427755 217.194855 17.006634 218.369019 17.655504 219.404556 C 18.304379 220.440094 19.672764 222.110764 20.696362 223.117142 C 21.719959 224.123505 23.546638 225.564789 24.755644 226.319977 C 25.964651 227.075165 27.958561 228.124634 29.186554 228.65213 C 30.414543 229.179642 32.461208 229.8806 33.734695 230.209808 C 36.050125 230.808395 36.050125 230.808395 95.621559 230.819122 Z M 156.465881 104.188934 L 35.031811 104.188934 L 34.944099 136.263718 C 34.868267 163.993195 34.909134 168.717865 35.245762 171.138687 C 35.459919 172.678772 35.935726 174.969849 36.303112 176.229919 C 36.670498 177.490005 37.366737 179.494675 37.850304 180.684753 C 38.33387 181.874832 39.25761 183.764954 39.903053 184.885025 C 40.548496 186.005096 41.721321 187.827515 42.509327 188.934814 C 43.297333 190.042145 45.031185 192.055283 46.362331 193.408478 C 47.693478 194.761673 49.70417 196.552078 50.830528 197.387177 C 51.95689 198.22226 53.79789 199.444504 54.921642 200.103271 C 56.045391 200.762039 58.045242 201.752441 59.365749 202.304153 C 60.68626 202.855881 62.796799 203.606522 64.05584 203.97226 C 65.314873 204.337982 67.261482 204.793869 68.38163 204.985336 C 70.028458 205.266815 75.412575 205.323135 96.512581 205.279587 C 120.599281 205.229874 122.753807 205.190643 124.516251 204.769791 C 125.566383 204.519028 127.513916 203.969147 128.844086 203.547852 C 130.174271 203.126541 132.408188 202.229736 133.80838 201.554947 C 135.208557 200.880157 137.385208 199.638611 138.64537 198.795944 C 139.905533 197.953278 141.841797 196.472015 142.948181 195.504227 C 144.054565 194.536453 145.751648 192.839478 146.719498 191.733154 C 147.687347 190.626862 149.157959 188.701187 149.987549 187.453903 C 150.817139 186.206619 152.012497 184.131241 152.64389 182.841949 C 153.275284 181.552643 154.187424 179.29039 154.670853 177.814697 C 155.154282 176.33902 155.755936 174.061386 156.007843 172.753311 C 156.434296 170.539017 156.465881 168.092712 156.465881 137.281967 L 156.465881 104.188934 Z M 167.412766 119.462639 C 167.31076 149.844604 167.34137 158.822845 167.414978 159.015579 C 167.517349 159.2836 167.862061 159.324951 168.880966 159.191498 C 169.613663 159.09552 171.241791 158.673492 172.499039 158.253632 C 173.756287 157.833771 175.417404 157.132416 176.19043 156.695068 C 176.963455 156.257706 178.459656 155.032867 179.515335 153.973206 C 180.570999 152.913544 181.837494 151.359222 182.329773 150.51918 C 182.822052 149.679138 183.579758 148.13266 184.01358 147.082596 C 184.447403 146.032532 185.099945 143.970581 185.463654 142.500488 C 185.827377 141.030396 186.302933 138.624786 186.520477 137.154694 C 186.738007 135.684601 186.982941 131.831772 187.064743 128.592865 C 187.212921 122.72599 187.211197 122.699791 186.603592 121.592422 C 186.182358 120.82473 185.639832 120.29866 184.849762 119.891785 C 183.713501 119.306648 183.651062 119.303223 175.559296 119.38266 L 167.412766 119.462639 Z M 111.660019 83.496536 C 111.239967 83.566895 110.552605 83.545319 110.132545 83.448593 C 109.712494 83.351883 109.010132 83.085876 108.571754 82.857468 C 108.133369 82.629074 107.484497 82.097321 107.129807 81.675827 C 106.775108 81.254318 106.341652 80.476974 106.166557 79.94838 C 105.991455 79.4198 105.869087 78.160156 105.894615 77.149185 C 105.920143 76.138214 106.115128 74.312805 106.327904 73.092728 C 106.54068 71.872635 106.997025 70.03363 107.341995 69.006042 C 107.686966 67.97847 108.415802 66.249557 108.961632 65.164032 C 109.507462 64.078506 110.64978 62.252075 111.500122 61.105301 C 112.350471 59.958511 114.190269 57.923584 115.58857 56.583221 C 116.986877 55.242859 119.288956 53.034119 120.7043 51.674881 C 122.119652 50.315674 123.60408 48.630814 124.003029 47.930771 C 124.401978 47.230728 124.974236 45.924316 125.274719 45.027634 C 125.615639 44.010254 125.952461 41.959457 126.170578 39.572906 C 126.491104 36.06572 126.580467 35.662506 127.247879 34.711899 C 127.64817 34.141769 128.466141 33.404205 129.065598 33.072845 C 129.755997 32.691223 130.591751 32.465408 131.345505 32.456848 C 132.082977 32.448471 132.934738 32.649124 133.585419 32.984528 C 134.162872 33.282181 134.915955 33.859161 135.258926 34.266739 C 135.601898 34.674301 136.045914 35.395279 136.245621 35.868896 C 136.469849 36.40065 136.594894 37.490295 136.57254 38.717499 C 136.552612 39.810593 136.337555 41.815262 136.094589 43.172333 C 135.851654 44.529404 135.313141 46.613419 134.897919 47.803497 C 134.482697 48.993561 133.780243 50.654587 133.336914 51.494644 C 132.8936 52.334686 131.923981 53.898483 131.18222 54.969727 C 130.44046 56.040955 128.952225 57.817505 127.875008 58.917618 C 126.797791 60.017715 124.360756 62.367218 122.459373 64.138702 C 119.603546 66.799438 118.83947 67.669479 118.065987 69.141312 C 117.551003 70.121262 116.964516 71.706528 116.762672 72.664124 C 116.560844 73.621719 116.348213 75.493454 116.290176 76.823532 C 116.225899 78.296753 116.01709 79.638458 115.755882 80.256638 C 115.520058 80.814774 115.074814 81.541885 114.766457 81.872437 C 114.458099 82.202988 113.80484 82.674866 113.314781 82.921036 C 112.824722 83.167236 112.08007 83.426208 111.660019 83.496536 Z M 76.01899 78.423569 C 75.598938 78.497696 74.893272 78.470963 74.450851 78.364197 C 74.00843 78.257401 73.264168 77.946808 72.796951 77.67395 C 72.329727 77.401108 71.689072 76.794449 71.373253 76.325851 C 71.057442 75.857239 70.670563 75.004288 70.513535 74.430389 C 70.33033 73.760834 70.286026 72.338043 70.389915 70.459488 C 70.478951 68.84938 70.827202 66.157394 71.163803 64.477295 C 71.500397 62.797195 72.142365 60.391571 72.590393 59.1315 C 73.038422 57.871414 73.921738 55.809464 74.553314 54.549377 C 75.184898 53.289291 76.368874 51.284622 77.184387 50.094543 C 77.999893 48.90448 79.568077 46.899796 80.669235 45.639725 C 81.770393 44.379639 84.496811 41.703522 86.727951 39.692795 C 88.959091 37.682083 91.736938 35.054184 92.900955 33.852997 C 94.06498 32.651825 95.632927 30.743973 96.385284 29.613327 C 97.137642 28.482681 98.103859 26.681961 98.532417 25.61174 C 98.960983 24.541519 99.550224 22.661316 99.841858 21.433502 C 100.171898 20.043915 100.447823 17.704681 100.572701 15.237503 C 100.712173 12.481949 100.903641 10.964569 101.20089 10.259109 C 101.43605 9.700974 101.880753 8.973862 102.18911 8.643311 C 102.497467 8.312759 103.201401 7.810776 103.753403 7.527802 C 104.306396 7.244308 105.278023 7.007431 105.91732 7.000229 C 106.624016 6.992264 107.488052 7.19873 108.127541 7.528351 C 108.705002 7.825989 109.475235 8.42337 109.839165 8.85585 C 110.203094 9.28833 110.644539 10.121735 110.820168 10.70787 C 110.99733 11.299149 111.110962 12.738922 111.075409 13.942062 C 111.040161 15.134735 110.892174 17.026962 110.746536 18.147049 C 110.600899 19.26712 110.269157 21.157242 110.009338 22.347305 C 109.749512 23.537384 109.172325 25.542053 108.726692 26.802139 C 108.281059 28.062225 107.297615 30.296005 106.541275 31.766098 C 105.784927 33.236206 104.393311 35.518066 103.448776 36.836945 C 102.504242 38.155823 100.627266 40.389618 99.277718 41.800903 C 97.928162 43.212219 94.968918 46.027924 92.701607 48.05806 C 90.434303 50.088181 87.806221 52.665619 86.861427 53.78569 C 85.916618 54.905777 84.715492 56.536926 84.192238 57.410522 C 83.668991 58.284103 82.913864 59.894821 82.514183 60.989899 C 82.11451 62.084961 81.601227 63.882675 81.373558 64.984818 C 81.145897 66.08696 80.903687 68.313751 80.83532 69.933258 C 80.76696 71.552765 80.590622 73.486435 80.443451 74.230301 C 80.269234 75.110809 79.903168 75.893311 79.394424 76.472702 C 78.96463 76.962173 78.20118 77.57103 77.697853 77.825714 C 77.194542 78.080414 76.439049 78.349426 76.01899 78.423569 Z"/>
</svg>
