<?xml version="1.0" encoding="UTF-8"?>
<!-- Generated by Pixelmator Pro 3.2.3 -->
<svg width="293" height="257" viewBox="0 0 293 257" xmlns="http://www.w3.org/2000/svg" xmlns:xlink="http://www.w3.org/1999/xlink">
    <path id="Shape-copy-3" fill="#335060" fill-rule="evenodd" stroke="none" d="M 145.939941 74.357635 C 151.248581 71.705338 154.299347 70.299042 156.144348 69.521378 C 157.989349 68.743713 160.936569 67.605957 162.693726 66.993027 C 164.450867 66.380096 167.55748 65.454727 169.597305 64.936661 C 171.637115 64.418594 175.38443 63.642654 177.924667 63.212341 C 180.46489 62.782059 184.630905 62.281723 187.182449 62.100525 C 190.329254 61.87706 193.714096 61.874115 197.704483 62.09137 C 200.940063 62.267532 205.528198 62.696045 207.900345 63.043625 C 210.272491 63.39119 213.651016 64.027451 215.408157 64.45752 C 217.165298 64.887619 220.421677 65.823593 222.644531 66.53746 C 224.867386 67.251358 228.174042 68.454224 229.992615 69.210526 C 231.811172 69.966812 235.383743 71.647293 237.931595 72.944885 C 240.479446 74.242493 244.433029 76.552963 246.717331 78.079239 C 249.001633 79.605515 252.452026 82.120682 254.384888 83.668518 C 256.317749 85.216324 259.698151 88.288223 261.896851 90.494934 C 264.095581 92.701645 267.164795 96.08847 268.717346 98.021194 C 270.269897 99.953918 272.818329 103.455475 274.380524 105.802414 C 275.942719 108.149338 278.325378 112.246414 279.675354 114.907028 C 281.025299 117.567627 282.736755 121.253937 283.478516 123.098816 C 284.220306 124.943695 285.413513 128.291489 286.130066 130.538361 C 286.846649 132.785248 287.863861 136.738556 288.390564 139.323517 C 288.917267 141.908478 289.568359 145.719971 289.837372 147.793472 C 290.157806 150.262863 290.326538 154.197296 290.326538 159.197815 C 290.326538 164.208282 290.158081 168.127853 289.836395 170.602142 C 289.566833 172.675659 288.926453 176.456635 288.41333 179.004333 C 287.900208 181.552032 286.970581 185.314209 286.347473 187.364731 C 285.724365 189.415253 284.417053 193.081055 283.442413 195.510956 C 282.467743 197.940872 280.655823 201.86969 279.415924 204.241684 C 278.176025 206.613678 275.958649 210.374649 274.488434 212.599396 C 273.018188 214.824142 270.64151 218.130554 269.206909 219.946976 C 267.772308 221.763397 264.497406 225.340561 261.929382 227.89624 C 259.361359 230.451904 256.038208 233.515656 254.544632 234.704559 C 253.051056 235.893463 249.922577 238.158264 247.592499 239.737457 C 245.26239 241.316635 241.308807 243.689545 238.806763 245.010574 C 236.304688 246.331619 232.316711 248.203827 229.944565 249.171066 C 227.572418 250.13829 223.762604 251.495056 221.478302 252.186081 C 219.194 252.877106 215.168549 253.866302 212.532822 254.384277 C 209.897095 254.902267 205.559204 255.568695 202.893036 255.86525 C 199.151733 256.281403 196.490601 256.362793 191.231964 256.222015 C 186.930588 256.106873 182.883453 255.804871 180.255142 255.402939 C 177.965317 255.052765 174.371155 254.383087 172.268097 253.914764 C 170.165054 253.446442 166.647308 252.483383 164.450867 251.774612 C 162.25444 251.065857 159.056824 249.929993 157.345062 249.250458 C 155.633301 248.570923 152.369843 247.081497 150.092941 245.940628 L 145.953125 243.866287 L 140.901688 246.336334 C 138.123413 247.694855 134.342285 249.364822 132.499222 250.047363 C 130.656143 250.729904 127.820778 251.692505 126.198402 252.186478 C 124.576035 252.680435 121.556931 253.46402 119.489288 253.92775 C 117.421661 254.391495 113.932869 255.05191 111.736435 255.395355 C 108.825409 255.85054 105.577927 256.053833 99.755882 256.145386 C 95.363014 256.214447 90.546822 256.136841 89.053253 255.97287 C 87.559685 255.808929 84.253044 255.299408 81.705177 254.840591 C 79.157318 254.38179 75.706917 253.656357 74.037628 253.228531 C 72.368332 252.80069 69.493004 251.939423 67.647995 251.31459 C 65.802994 250.689758 62.78389 249.552856 60.938889 248.788116 C 59.093884 248.023376 55.501614 246.308945 52.95607 244.978256 C 50.410522 243.647552 46.52882 241.348724 44.33007 239.869751 C 42.131317 238.390762 39.182205 236.256561 37.776485 235.127106 C 36.370766 233.997635 33.889736 231.869431 32.263084 230.397766 C 30.636431 228.926102 28.074675 226.356308 26.57029 224.687134 C 25.065907 223.01796 22.786564 220.286575 21.505085 218.617401 C 20.223604 216.948212 18.088564 213.929321 16.76055 211.908722 C 15.432536 209.888153 13.254364 206.078583 11.920169 203.443039 C 10.585972 200.807495 8.78093 196.825806 7.908962 194.594833 C 7.036995 192.363861 5.880928 189.057465 5.339921 187.247253 C 4.798916 185.437042 3.994483 182.302765 3.552293 180.282181 C 3.110103 178.261597 2.462072 174.739532 2.112224 172.455414 C 1.734851 169.991547 1.398558 165.703766 1.285399 161.913223 C 1.169146 158.019089 1.240642 153.809067 1.46848 151.132477 C 1.67408 148.717133 2.207067 144.763824 2.652896 142.347321 C 3.098724 139.930847 3.809449 136.588013 4.232285 134.918839 C 4.655119 133.249664 5.650496 129.988663 6.444232 127.672195 C 7.237968 125.355698 8.516534 122.030945 9.285491 120.283829 C 10.054446 118.536713 11.510613 115.544266 12.521417 113.633957 C 13.53222 111.723648 15.386067 108.579346 16.641077 106.646622 C 17.896086 104.713882 19.84627 101.910614 20.974821 100.417145 C 22.103371 98.923676 24.404575 96.13559 26.088608 94.22142 C 27.77264 92.307236 30.731918 89.309372 32.664783 87.559494 C 34.597645 85.809631 37.760509 83.187515 39.693375 81.732574 C 41.626236 80.277634 44.591068 78.203079 46.281895 77.122467 C 47.972717 76.041855 51.351234 74.120438 53.789707 72.852661 C 56.889679 71.240982 58.223297 70.3815 58.223297 69.995316 C 58.223297 69.691528 53.846306 63.4487 48.496643 56.12233 C 42.384022 47.751083 38.597523 42.277817 38.305824 41.39183 C 37.960983 40.344421 37.919857 39.64032 38.145844 38.652893 C 38.313648 37.919678 41.648228 31.809433 45.583317 25.024551 C 49.506626 18.259995 53.236774 11.934692 53.87254 10.968307 C 54.761406 9.617233 55.434464 9.011612 56.785629 8.347137 C 58.450489 7.528381 59.734097 7.354843 81.22596 5.042877 C 93.701706 3.700821 104.558983 2.589203 105.353241 2.572662 C 106.375626 2.551346 107.282051 2.806335 108.457138 3.445847 C 109.649597 4.094833 111.439903 5.798233 114.815536 9.495636 C 117.399773 12.326187 121.897453 17.270218 124.810379 20.482346 C 127.723305 23.694473 130.496109 26.912674 130.972153 27.633881 C 131.448196 28.355103 131.927979 29.547302 132.038345 30.283234 C 132.196091 31.335083 132.038391 32.128632 131.301086 33.993332 C 130.785248 35.297958 129.455795 38.377991 128.346756 40.83783 C 127.237709 43.297684 125.79882 46.60408 125.149216 48.18541 C 124.499611 49.766754 122.858643 53.50444 121.502632 56.491379 C 120.146614 59.478317 118.958755 62.379242 118.862946 62.937866 C 118.695648 63.913345 118.743973 63.967468 120.084679 64.305908 C 120.852448 64.499725 123.205818 65.166916 125.314392 65.788574 C 127.422974 66.410217 130.65773 67.482666 132.502731 68.171799 C 134.347733 68.860931 138.125885 70.534637 140.898605 71.89119 L 145.939941 74.357635 Z M 97.519508 244.129944 C 100.33094 244.153076 104.284523 244.022003 106.305252 243.838654 C 108.325974 243.655289 111.273186 243.287552 112.854622 243.021454 C 114.436058 242.755356 117.383263 242.122116 119.403992 241.614258 C 121.424713 241.1064 124.731339 240.118805 126.75206 239.419586 C 128.772781 238.720367 131.868057 237.506836 133.630447 236.72287 C 135.392838 235.938904 138.268158 234.476334 140.020081 233.472717 C 141.771973 232.469101 144.577927 230.732376 146.255508 229.613312 C 147.933105 228.494263 150.698303 226.425385 152.400421 225.015808 C 154.102524 223.606232 156.863708 221.084503 158.536362 219.411957 C 160.20903 217.739395 162.730942 214.978409 164.140594 213.276413 C 165.550278 211.574417 167.619598 208.809387 168.739105 207.131912 C 169.858627 205.454437 171.653534 202.545776 172.727798 200.668228 C 173.802063 198.79068 175.411392 195.556152 176.304092 193.480377 C 177.196777 191.404602 178.408585 188.268677 178.996979 186.511658 C 179.585373 184.754608 180.499435 181.591965 181.028214 179.483521 C 181.557007 177.375092 182.248596 173.859192 182.565094 171.670441 C 183.004959 168.628571 183.140533 165.692871 183.140533 159.211487 C 183.140533 152.700958 183.004837 149.781433 182.556107 146.637726 C 182.234665 144.385834 181.629913 141.132111 181.212234 139.407227 C 180.794556 137.682343 179.928085 134.637085 179.286774 132.639954 C 178.645462 130.642822 177.480682 127.499374 176.698349 125.654495 C 175.916046 123.809616 174.662964 121.150101 173.913727 119.744476 C 173.164505 118.338867 171.729141 115.863312 170.724045 114.243271 C 169.718979 112.62323 168.04071 110.143417 166.994553 108.73259 C 165.48967 106.703079 164.923798 106.167435 164.284622 106.167435 C 163.840302 106.167435 162.509857 106.772766 161.328094 107.512619 C 160.146317 108.252472 158.201248 109.563461 157.005707 110.425919 C 155.561829 111.467514 154.864578 112.176407 154.929077 112.537247 C 154.982483 112.836029 155.763977 114.076736 156.665771 115.294373 C 157.567551 116.512024 159.05629 118.658325 159.974091 120.06395 C 160.891891 121.469574 162.624603 124.632217 163.824539 127.092072 C 165.02449 129.55191 166.528046 133.073959 167.165787 134.918839 C 167.803497 136.763718 168.670868 139.638855 169.093262 141.308044 C 169.515656 142.977234 170.15564 146.139877 170.515427 148.336166 C 170.875214 150.532455 171.261047 154.292328 171.372818 156.691406 C 171.496796 159.352051 171.424164 162.591705 171.186615 164.997375 C 170.972412 167.166565 170.445724 170.756744 170.01619 172.975571 C 169.586655 175.194397 168.827454 178.357056 168.329086 180.003693 C 167.830734 181.65033 166.772644 184.651947 165.977783 186.673965 C 165.182938 188.695969 163.700119 191.858627 162.682632 193.702087 C 161.665131 195.545547 160.010483 198.280823 159.00563 199.780487 C 158.000778 201.280136 156.324356 203.580246 155.280273 204.891846 C 154.236176 206.20343 152.026672 208.647049 150.370255 210.322083 C 148.713852 211.997131 145.992828 214.45993 144.323547 215.794983 C 142.654251 217.130035 139.840912 219.16745 138.071686 220.322571 C 136.302444 221.477692 132.679718 223.487946 130.021179 224.789795 C 127.362633 226.091644 123.418938 227.741455 121.257408 228.456055 C 119.095886 229.170654 115.594002 230.118088 113.475456 230.561447 C 111.356903 231.004822 107.978394 231.553619 105.967644 231.781006 C 103.956894 232.008408 100.514648 232.194443 98.318214 232.194443 C 96.12178 232.194443 92.743263 232.013977 90.810402 231.793411 C 88.877541 231.57283 85.603027 231.039734 83.533707 230.608749 C 81.464386 230.177765 77.798332 229.16713 75.386932 228.362885 C 72.975525 227.558624 68.989822 225.916077 66.529816 224.712738 C 64.069809 223.50943 60.475639 221.486343 58.542778 220.217026 C 56.609913 218.947708 53.950233 217.043915 52.63237 215.986359 C 51.31451 214.928802 48.962429 212.82399 47.405525 211.308975 C 45.848618 209.793961 43.528175 207.310013 42.248981 205.789078 C 40.969788 204.268158 38.838837 201.393005 37.513538 199.399872 C 36.188236 197.406738 34.049622 193.619629 32.761055 190.9841 C 31.472492 188.348541 29.822195 184.395233 29.093731 182.198944 C 28.365267 180.002655 27.403488 176.472443 26.956444 174.354034 C 26.509398 172.235626 25.957577 168.857346 25.730171 166.846725 C 25.502768 164.836121 25.31671 161.394104 25.31671 159.197815 C 25.31671 157.001526 25.502768 153.559509 25.730171 151.548889 C 25.957577 149.538269 26.509398 146.159988 26.956444 144.04158 C 27.403488 141.923172 28.365267 138.392975 29.093731 136.196686 C 29.822195 134.000397 31.472492 130.047073 32.761055 127.41153 C 34.049622 124.775986 36.156574 121.036423 37.443176 119.101395 C 38.729774 117.166367 40.746243 114.389511 41.92421 112.930618 C 43.10218 111.47171 45.315269 109.02887 46.842186 107.50206 C 48.369102 105.97525 50.835663 103.744644 52.323441 102.545151 C 53.811214 101.345673 56.517811 99.37413 58.338108 98.16394 C 60.158405 96.953766 63.177505 95.181534 65.047218 94.225662 C 66.916931 93.269775 69.933708 91.895645 71.751167 91.172028 C 73.568619 90.44841 76.568535 89.431564 78.417633 88.912369 C 80.266739 88.393188 83.30838 87.685257 85.176842 87.339203 C 87.045296 86.993149 89.970085 86.559586 91.676376 86.375732 C 93.382683 86.191864 96.44339 86.041443 98.477959 86.041443 C 100.512527 86.041443 103.573227 86.194778 105.279533 86.382172 C 106.985825 86.569595 110.182358 87.071579 112.382935 87.497711 C 114.583519 87.923843 117.746384 88.710052 119.411522 89.244812 C 121.076675 89.779602 122.909058 90.303162 123.483498 90.408295 C 124.421257 90.579941 124.714928 90.422394 126.358833 88.865814 C 127.365822 87.912308 129.339859 86.158142 130.745575 84.967667 C 132.151291 83.777206 133.344727 82.5457 133.397629 82.231018 C 133.47226 81.787201 132.898865 81.405365 130.841782 80.528946 C 129.383148 79.907486 126.608292 78.897034 124.67543 78.283478 C 122.742577 77.669922 119.570557 76.792709 117.626511 76.334091 C 115.682465 75.875488 112.591484 75.281326 110.75766 75.013733 C 108.923836 74.746109 104.800865 74.436295 101.595505 74.325226 C 97.950073 74.198898 94.007225 74.269455 91.066887 74.513672 C 88.481514 74.728394 84.850235 75.179565 82.997383 75.516281 C 81.144524 75.852997 78.012169 76.564163 76.036591 77.096649 C 74.061005 77.62915 71.113792 78.546692 69.487221 79.135635 C 67.860649 79.724564 64.94838 80.912491 63.015518 81.775467 C 61.082653 82.638443 57.776024 84.367752 55.667446 85.618393 C 53.558865 86.869019 50.552731 88.805603 48.987137 89.92186 C 47.421543 91.038132 44.588539 93.28511 42.691574 94.915131 C 40.794605 96.545151 37.945663 99.27652 36.360592 100.984863 C 34.775517 102.693207 32.289154 105.624619 30.83534 107.499115 C 29.381525 109.373611 27.145365 112.632584 25.866091 114.741287 C 24.586817 116.849991 22.69696 120.347794 21.666405 122.514221 C 20.635851 124.680618 19.266159 127.87059 18.622648 129.603027 C 17.979136 131.33548 16.967712 134.522125 16.37504 136.684479 C 15.782366 138.846817 14.999899 142.388992 14.636223 144.555954 C 14.272547 146.722931 13.833809 150.867889 13.66125 153.766998 C 13.454987 157.232361 13.455987 160.843811 13.664168 164.309174 C 13.838332 167.208282 14.264299 171.305344 14.610765 173.413788 C 14.957229 175.522217 15.753148 179.17569 16.379475 181.532593 C 17.0058 183.889496 18.029993 187.195923 18.655458 188.880188 C 19.280926 190.564438 20.627678 193.697906 21.648243 195.843445 C 22.668808 197.988968 24.466566 201.342194 25.643263 203.295044 C 26.819958 205.247894 28.819756 208.236435 30.087259 209.936264 C 31.354763 211.636078 33.679943 214.459717 35.25433 216.210999 C 36.82872 217.96228 39.54982 220.683609 41.301224 222.258377 C 43.052628 223.83316 45.986271 226.238037 47.820427 227.60257 C 49.654587 228.967102 52.988991 231.177551 55.230217 232.514679 C 57.471439 233.851807 60.930714 235.674637 62.917492 236.565399 C 64.904266 237.456177 67.860649 238.667801 69.487221 239.257889 C 71.113792 239.847992 74.061005 240.766739 76.036591 241.299545 C 78.012169 241.832352 81.209984 242.553833 83.142845 242.902847 C 85.075706 243.251862 87.951042 243.661255 89.532478 243.812637 C 91.113914 243.964005 94.708076 244.106796 97.519508 244.129944 Z M 195.280823 244.010315 C 199.654083 243.938599 203.986969 243.687576 205.983459 243.390244 C 207.828461 243.115479 211.20697 242.440796 213.491272 241.890961 C 215.775574 241.34111 219.227341 240.347473 221.161896 239.682877 C 223.096451 239.01828 226.45813 237.67955 228.632263 236.707932 C 230.806412 235.736313 234.327316 233.906158 236.456467 232.640915 C 238.585648 231.375671 241.334076 229.6194 242.564072 228.738083 C 243.794067 227.856766 245.844238 226.286804 247.11998 225.249283 C 248.395721 224.211761 250.652115 222.215118 252.134171 220.812317 C 253.616241 219.409515 256.037292 216.868286 257.514343 215.165115 C 258.991364 213.46196 261.075012 210.882065 262.144623 209.432022 C 263.214233 207.981979 265.045349 205.209061 266.213745 203.269989 C 267.382111 201.330917 269.173096 197.988968 270.193634 195.843445 C 271.214203 193.697906 272.560974 190.564438 273.186432 188.880188 C 273.81189 187.195923 274.835938 183.889496 275.462036 181.532593 C 276.088165 179.17569 276.887299 175.522217 277.237885 173.413788 C 277.58847 171.305344 278.013916 167.19754 278.183319 164.285294 C 278.377594 160.945053 278.380859 157.156982 278.192139 154.024139 C 278.027557 151.292725 277.677612 147.617889 277.414429 145.857819 C 277.151245 144.097748 276.503448 140.944885 275.974915 138.85144 C 275.446381 136.758026 274.582886 133.726318 274.056091 132.114319 C 273.529266 130.502319 272.437592 127.634689 271.630096 125.741806 C 270.822632 123.848892 269.54895 121.150101 268.799713 119.744476 C 268.050476 118.338867 266.607208 115.850525 265.592438 114.214828 C 264.577667 112.579147 262.707367 109.847748 261.436157 108.145081 C 260.164948 106.442413 257.752838 103.539871 256.075928 101.694992 C 254.398972 99.850113 251.658356 97.136765 249.985687 95.665329 C 248.312988 94.193909 245.551941 91.946747 243.850021 90.671646 C 242.148117 89.39653 238.906387 87.249985 236.646179 85.90152 C 234.385986 84.55307 230.911179 82.719849 228.924408 81.827667 C 226.937622 80.935501 223.802536 79.665024 221.95752 79.00441 C 220.112518 78.343781 216.59024 77.298767 214.130234 76.682175 C 211.670227 76.065567 207.788528 75.295593 205.504227 74.9711 C 202.43367 74.534943 199.435425 74.381149 194.002899 74.381149 C 189.961456 74.381149 185.001511 74.566437 182.980789 74.792908 C 180.960068 75.019379 177.653442 75.573654 175.632721 76.024612 C 173.612 76.475571 170.739746 77.197662 169.249908 77.629227 C 167.760101 78.060822 165.028549 78.981094 163.179779 79.674286 C 161.331009 80.367493 157.949417 81.860397 155.665131 82.991852 C 153.380844 84.123322 150.002319 86.000519 148.157318 87.163437 C 146.312317 88.326355 143.508865 90.263458 141.927429 91.468155 C 140.345993 92.672836 137.648636 94.927612 135.933289 96.47876 C 134.217957 98.029907 131.517929 100.736603 129.933258 102.493637 C 128.348572 104.250671 125.821976 107.414505 124.318611 109.524399 C 122.815239 111.634277 120.59314 115.084442 119.38063 117.191437 C 118.168114 119.298416 116.320557 123.034912 115.274948 125.494766 C 114.229355 127.95462 112.87603 131.620407 112.267593 133.640991 C 111.659149 135.661591 110.795433 138.967987 110.348228 140.988586 C 109.901024 143.009171 109.347542 146.171814 109.11824 148.016708 C 108.878006 149.949692 108.701363 154.687531 108.701363 159.197815 C 108.701363 163.708099 108.878006 168.445923 109.11824 170.378906 C 109.347542 172.223785 109.901024 175.386444 110.348228 177.407043 C 110.795433 179.427612 111.649788 182.695282 112.246788 184.668518 C 112.843788 186.641754 114.205994 190.307556 115.273895 192.814758 C 116.341805 195.32196 118.169098 199.026505 119.334564 201.047089 C 120.500023 203.067673 122.374008 206.086563 123.498993 207.755753 C 124.62397 209.424927 125.963593 211.221893 126.475929 211.748993 C 127.407433 212.707382 127.407433 212.707382 128.757034 211.940002 C 129.499298 211.517944 130.886292 210.6772 131.839233 210.071686 C 132.792175 209.466156 134.344696 208.387268 135.289291 207.674133 C 136.358582 206.866867 136.970703 206.177689 136.91124 205.848022 C 136.858704 205.556793 136.008759 204.249619 135.022491 202.943207 C 134.036209 201.63678 132.587448 199.5616 131.80304 198.33168 C 131.018631 197.101746 129.796967 195.017273 129.088257 193.699493 C 128.379547 192.381729 127.221176 190.009735 126.514091 188.428406 C 125.807007 186.847076 124.697678 183.998993 124.04892 182.099319 C 123.400169 180.199646 122.511261 176.965118 122.073563 174.911469 C 121.635872 172.857819 121.074615 169.668121 120.826332 167.823242 C 120.578049 165.978363 120.372108 162.212097 120.368675 159.453766 C 120.365242 156.69545 120.583267 152.754089 120.85318 150.695236 C 121.123093 148.636368 121.684059 145.358521 122.099762 143.411163 C 122.515472 141.463776 123.379433 138.313263 124.019669 136.410004 C 124.659912 134.506744 125.815445 131.524857 126.58754 129.7836 C 127.359627 128.042313 128.779404 125.213638 129.742584 123.49765 C 130.705765 121.781647 132.457291 119.013245 133.634842 117.345657 C 134.812393 115.678055 136.7612 113.149979 137.96553 111.727707 C 139.169861 110.30542 141.288605 108.058975 142.673859 106.735596 C 144.059128 105.412216 146.326843 103.42543 147.713226 102.320526 C 149.099625 101.215607 151.7435 99.31337 153.588501 98.093323 C 155.433502 96.873291 158.95578 94.893173 161.415802 93.693085 C 163.875809 92.492996 167.273819 91.003021 168.96698 90.382019 C 170.660126 89.761017 173.391693 88.903793 175.037125 88.477051 C 176.682556 88.050308 179.825912 87.391251 182.022354 87.012482 C 184.218781 86.633682 188.223511 86.238037 190.921768 86.133255 C 193.857193 86.019257 197.403259 86.09549 199.750427 86.323059 C 201.907944 86.532227 205.705124 87.121399 208.188583 87.632309 C 210.672073 88.143234 214.46257 89.15593 216.611923 89.882736 C 218.761292 90.609558 222.100204 91.947372 224.031754 92.855682 C 225.963287 93.763977 228.984146 95.369675 230.744751 96.423889 C 232.505341 97.478104 235.381775 99.418594 237.13678 100.736053 C 238.8918 102.053528 241.963058 104.713028 243.961823 106.646072 C 245.960602 108.579102 248.520081 111.310745 249.649567 112.716354 C 250.779037 114.121979 252.683456 116.70961 253.881546 118.466644 C 255.079636 120.223679 256.927917 123.314453 257.9888 125.335037 C 259.049652 127.355621 260.585938 130.713837 261.40271 132.797729 C 262.219452 134.881622 263.378937 138.503006 263.979279 140.845245 C 264.57962 143.187485 265.326141 146.865143 265.638275 149.017822 C 266.029541 151.716675 266.205688 154.877075 266.205688 159.197815 C 266.205688 163.518555 266.029541 166.67894 265.638275 169.377808 C 265.326141 171.530472 264.57962 175.20813 263.979279 177.550385 C 263.378937 179.892609 262.214661 183.513992 261.391998 185.5979 C 260.569366 187.681793 259.319641 190.53685 258.614838 191.942474 C 257.910034 193.348099 256.558075 195.771072 255.610443 197.326859 C 254.662811 198.88266 252.861954 201.537994 251.608505 203.2276 C 250.355026 204.917221 247.951035 207.722321 246.266251 209.461136 C 244.581482 211.199966 241.909683 213.709534 240.328934 215.037964 C 238.748169 216.366409 235.729065 218.59407 233.619827 219.988342 C 231.510574 221.382614 228.206848 223.315231 226.278214 224.283051 C 224.349579 225.250854 221.164246 226.671158 219.199692 227.43927 C 217.235138 228.207367 213.996933 229.253555 212.003662 229.764114 C 210.010422 230.274689 207.013779 230.924988 205.344498 231.209213 C 203.675217 231.493439 200.584213 231.881332 198.475647 232.071198 C 196.367065 232.261063 192.988556 232.323868 190.967834 232.21077 C 188.947098 232.097672 185.812256 231.798553 184.00148 231.546066 C 182.190704 231.293579 179.099716 230.723862 177.132629 230.280029 C 175.165527 229.836212 172.263794 229.055206 170.684311 228.54451 C 169.104843 228.033798 167.64566 227.711685 167.441711 227.828705 C 167.237778 227.945724 165.043732 229.813614 162.566071 231.979584 C 160.088425 234.145554 158.061234 236.058502 158.061234 236.230606 C 158.061234 236.40271 159.103546 237.016464 160.377487 237.594528 C 161.651413 238.172577 164.275162 239.164734 166.208023 239.799286 C 168.140869 240.433853 171.179153 241.316666 172.959732 241.761093 C 174.740326 242.205521 177.615646 242.793472 179.349365 243.067642 C 181.083069 243.341812 183.723587 243.693176 185.217163 243.848465 C 186.710739 244.003754 191.23938 244.076584 195.280823 244.010315 Z M 99.596138 219.756134 C 105.293907 219.67453 108.030128 219.50473 109.653374 219.132034 C 110.879837 218.850433 112.655586 218.395538 113.599487 218.121155 C 114.943932 217.730347 115.281601 217.505188 115.158417 217.081604 C 115.071945 216.78421 113.789841 214.741608 112.309303 212.54245 C 110.828758 210.343292 108.488052 206.3181 107.107735 203.597565 C 105.727409 200.877029 103.992416 197.141693 103.25219 195.296799 C 102.511955 193.45192 101.314865 190.116364 100.591972 187.88446 C 99.869087 185.652557 98.784081 181.378098 98.18084 178.385681 C 97.577599 175.39325 96.894493 171.253448 96.662819 169.186096 C 96.431145 167.118744 96.241585 162.695892 96.241585 159.357544 C 96.241585 156.01918 96.423943 151.488251 96.646828 149.288818 C 96.869713 147.089386 97.545555 142.848557 98.148682 139.864746 C 98.751831 136.880951 99.842751 132.570801 100.572975 130.286667 C 101.303192 128.002533 102.50589 124.624237 103.245636 122.779358 C 103.985382 120.934479 105.659294 117.341614 106.965446 114.795242 C 108.271599 112.248856 110.668625 108.155411 112.292183 105.698715 C 114.639114 102.147415 115.162933 101.151031 114.848061 100.837006 C 114.630241 100.619766 113.230003 100.155029 111.736435 99.80426 C 110.242867 99.453506 107.802597 99.016647 106.313637 98.83345 C 104.824669 98.650269 101.230499 98.500793 98.326599 98.501282 C 95.422691 98.501785 91.752876 98.658646 90.17144 98.849884 C 88.590004 99.041122 85.383896 99.685333 83.046745 100.281464 C 80.709602 100.877594 77.082443 102.073105 74.986404 102.938126 C 72.890366 103.803177 69.675087 105.404602 67.841339 106.496857 C 66.007591 107.589111 63.237129 109.433243 61.684757 110.594894 C 60.132385 111.756531 57.416618 114.146667 55.649723 115.906265 C 53.882832 117.665894 51.489967 120.328659 50.332249 121.823547 C 49.17453 123.318451 47.276928 126.121704 46.115353 128.053024 C 44.953781 129.984344 43.366917 133.073959 42.588989 134.918839 C 41.811066 136.763718 40.673355 139.931885 40.060749 141.959198 C 39.448143 143.986526 38.683571 147.221054 38.361702 149.147064 C 37.937813 151.683517 37.776485 154.322144 37.776485 158.718628 C 37.776485 162.056976 37.953094 166.168274 38.168953 167.854828 C 38.384815 169.541382 38.995041 172.60289 39.525013 174.658203 C 40.054989 176.713501 41.122669 179.974152 41.897636 181.904053 C 42.6726 183.833969 44.146996 186.928986 45.174057 188.781876 C 46.201122 190.634766 48.183094 193.674927 49.578438 195.537781 C 50.973778 197.400635 53.489697 200.306702 55.169361 201.995697 C 56.84903 203.684692 59.560608 206.097794 61.195099 207.358139 C 62.829594 208.618484 65.377373 210.380783 66.856834 211.274368 C 68.336296 212.167938 70.916405 213.547806 72.590408 214.340744 C 74.264404 215.133667 76.892227 216.209274 78.43 216.730957 C 79.967773 217.252655 82.365807 217.972015 83.758957 218.329529 C 85.152107 218.687057 87.524254 219.17952 89.030403 219.423889 C 91.002365 219.743866 93.959663 219.836853 99.596138 219.756134 Z M 193.204193 219.853912 C 197.294022 219.878571 200.523483 219.72728 202.605438 219.413498 C 204.349686 219.15062 207.225006 218.557922 208.995071 218.096375 C 210.765121 217.634842 213.507233 216.754181 215.088669 216.139359 C 216.670105 215.524536 219.045273 214.486206 220.366852 213.83194 C 221.688416 213.177673 224.103439 211.817383 225.733582 210.809082 C 227.363724 209.800781 229.804733 208.100967 231.158035 207.031708 C 232.511353 205.962448 234.986694 203.711273 236.658798 202.029099 C 238.330933 200.346924 240.846848 197.436127 242.249725 195.560684 C 243.652618 193.685226 245.628632 190.656586 246.640839 188.830383 C 247.653061 187.004181 249.066605 184.082184 249.782074 182.337036 C 250.497513 180.591919 251.566498 177.40683 252.157562 175.259094 C 252.748642 173.111343 253.419724 169.876816 253.648819 168.071228 C 253.877945 166.265656 254.065414 162.191071 254.065414 159.016602 C 254.065414 155.272186 253.876816 151.961975 253.528473 149.592529 C 253.23317 147.583755 252.490463 144.209625 251.878021 142.094467 C 251.265579 139.979309 250.081665 136.689606 249.247055 134.784027 C 248.41246 132.878448 246.854889 129.864822 245.785797 128.087082 C 244.716721 126.309357 242.981949 123.705017 241.930771 122.299667 C 240.879608 120.894318 238.435562 118.158813 236.499588 116.220764 C 234.563614 114.282715 231.709503 111.74884 230.15715 110.58992 C 228.604767 109.431 225.873199 107.615372 224.087006 106.555206 C 222.300781 105.495026 219.091385 103.895111 216.954987 102.999817 C 214.818588 102.104523 211.10466 100.868195 208.701813 100.25238 C 206.298965 99.636597 202.65567 98.967926 200.605621 98.766464 C 198.332794 98.543121 194.509445 98.474716 190.80809 98.591187 C 187.351257 98.699951 183.712021 98.995178 182.35495 99.276932 C 181.044327 99.549057 179.196701 99.997055 178.249115 100.272507 C 176.898865 100.665009 176.560257 100.890259 176.683472 101.314026 C 176.769958 101.611404 178.054321 103.65741 179.537628 105.860718 C 181.02095 108.064011 183.41481 112.200073 184.85733 115.051971 C 186.299881 117.90387 188.110489 121.85144 188.880966 123.824371 C 189.651413 125.797318 190.80127 129.127808 191.436172 131.22551 C 192.071091 133.323212 193.012833 137.128876 193.528931 139.682541 C 194.045013 142.236206 194.706406 146.330566 194.998672 148.781097 C 195.290909 151.231628 195.545853 155.548248 195.56517 158.373566 C 195.584488 161.198883 195.424423 165.307495 195.209442 167.503769 C 194.994461 169.700058 194.593643 172.790833 194.318741 174.372162 C 194.043839 175.953491 193.452393 178.900513 193.004425 180.921097 C 192.556458 182.941681 191.620361 186.354279 190.924225 188.504639 C 190.228073 190.654999 188.937027 194.177048 188.055237 196.331406 C 187.173416 198.485779 185.512497 202.045395 184.364288 204.241684 C 183.216095 206.437973 181.177124 209.888 179.833267 211.908401 C 178.489395 213.928802 177.179916 215.986115 176.923325 216.480194 C 176.520599 217.255661 176.518982 217.416962 176.91156 217.659576 C 177.161682 217.814148 178.593643 218.23645 180.093704 218.598007 C 181.59375 218.959564 183.755524 219.381607 184.897675 219.535873 C 186.039825 219.690155 189.777771 219.833267 193.204193 219.853912 Z M 146.007294 196.515244 C 146.483612 196.446838 147.395264 195.398636 148.873016 193.220306 C 150.064957 191.463287 151.888962 188.337372 152.926361 186.273849 C 153.96376 184.210327 155.279999 181.119537 155.851349 179.405457 C 156.422684 177.691376 157.223007 174.995117 157.629837 173.413788 C 158.036652 171.832458 158.551743 168.957306 158.774475 167.024582 C 158.997192 165.091858 159.179428 161.569794 159.179428 159.197815 C 159.179428 156.825821 158.999176 153.303772 158.77887 151.371033 C 158.558563 149.438309 157.960648 146.275635 157.450165 144.342911 C 156.939697 142.410187 156.077271 139.606903 155.533676 138.113434 C 154.990067 136.619965 153.75679 133.816696 152.793045 131.883972 C 151.8293 129.951233 150.065414 126.932343 148.873306 125.175308 C 147.4039 123.009567 146.482376 121.948593 146.012024 121.880997 C 145.477081 121.804123 144.981491 122.243042 143.847778 123.797745 C 143.039047 124.906815 141.506439 127.302109 140.441956 129.120636 C 139.377502 130.939148 137.885574 133.909149 137.126602 135.720581 C 136.367615 137.532043 135.307526 140.545776 134.770859 142.417786 C 134.234192 144.289795 133.568542 147.070099 133.291656 148.596222 C 133.014755 150.122375 132.702087 153.725693 132.596848 156.603607 C 132.478729 159.832947 132.554855 163.376877 132.795715 165.860687 C 133.017975 168.152863 133.652771 171.706482 134.270447 174.116333 C 134.866928 176.443466 136.014618 179.968781 136.820892 181.950378 C 137.627167 183.931976 139.146576 187.062714 140.197388 188.907593 C 141.248184 190.752472 142.82811 193.241501 143.708344 194.438751 C 144.955109 196.134537 145.463135 196.593399 146.007294 196.515244 Z M 105.798637 61.922195 C 114.608894 42.098984 115.876083 38.939407 115.616661 38.679993 C 115.357239 38.420593 107.453682 39.160294 86.103859 41.442139 C 70.066689 43.156158 56.680634 44.633743 56.357071 44.725616 C 55.988846 44.830185 55.823082 45.100357 55.913948 45.447815 C 55.993801 45.753113 59.277634 50.419144 63.211361 55.816711 C 70.363594 65.630478 70.363594 65.630478 71.641518 65.478317 C 72.344376 65.394608 74.500877 64.960159 76.433739 64.512817 C 78.3666 64.065506 81.690468 63.416412 83.820114 63.070404 C 85.949753 62.72438 90.047112 62.274918 92.925339 62.07164 C 95.803566 61.868332 99.87751 61.751526 101.978554 61.812088 L 105.798637 61.922195 Z M 57.865562 32.14859 C 58.806206 32.051514 61.713703 31.737961 64.32666 31.451813 C 68.055077 31.043518 69.097748 30.826385 69.171616 30.442841 C 69.228287 30.14859 67.777046 28.695053 65.5243 26.78978 C 63.466511 25.049377 61.495743 23.616776 61.144825 23.606216 C 60.657177 23.591507 59.949211 24.544525 58.14138 27.649185 C 56.840405 29.883392 55.86132 31.849472 55.965633 32.018219 C 56.071617 32.189713 56.909836 32.247208 57.865562 32.14859 Z M 101.553673 27.450012 C 102.584709 27.33815 105.477325 27.02536 107.981712 26.754913 C 110.486099 26.484497 112.666283 26.133713 112.826569 25.975433 C 113.001167 25.803009 112.587921 25.103699 111.795731 24.231033 C 111.068489 23.429901 109.65638 21.879089 108.657738 20.784775 C 107.659096 19.690445 106.595901 18.751556 106.295082 18.698349 C 105.94175 18.63588 105.187057 19.314377 104.163109 20.615112 C 103.291351 21.722534 101.833511 23.609863 100.923477 24.809158 C 100.013435 26.008438 99.361153 27.139023 99.473953 27.321533 C 99.602119 27.5289 100.382317 27.577072 101.553673 27.450012 Z M 84.247169 26.138306 C 84.518372 26.038315 84.977905 25.638992 85.268379 25.250931 C 85.558846 24.862869 86.361435 23.826584 87.051895 22.948059 C 87.742363 22.06955 89.058945 20.360413 89.977638 19.149948 C 91.059608 17.72438 91.538544 16.839722 91.337318 16.638489 C 91.136086 16.437271 88.794083 16.566193 84.688637 17.004501 C 81.202728 17.376648 77.595848 17.768631 76.673347 17.875595 C 75.586311 18.001617 74.996071 18.219864 74.996071 18.495789 C 74.996071 18.729935 76.966621 20.586197 79.375076 22.620804 C 82.227524 25.030502 83.92598 26.256714 84.247169 26.138306 Z"/>
</svg>
